<svg id="SVGRoot" width="1920px" height="1080px" version="1.1" viewBox="0 0 1920 1080" xmlns="http://www.w3.org/2000/svg">
  <path d="m845.27 162.47c-8.6516 1.0159-15.672 9.0079-14.31 18.921l0.38882 2.832-4.6567 0.0279c-3.7918 0.0214-5.0698 0.23858-6.8703 1.1787-7.1068 3.7112-10.827 11.723-8.8328 19.016 0.85099 3.1122 3.5401 7.374 5.563 8.8144 6.8458 4.8747 15.977 4.443 21.78-1.0318l1.8829-1.7788 2.2381 2.0084c1.2296 1.1042 5.9429 5.5414 10.474 9.8615 13.687 13.05 22.632 21.35 23.029 21.361 0.20677 6e-3 0.50951-0.62653 0.67358-1.4053h3e-3c0.83555-3.9675 4.5392-14.504 6.6253-18.85 1.3003-2.7087 2.3636-5.1372 2.3636-5.3976 0-0.26028-0.98544-1.3472-2.189-2.4126-1.2036-1.0654-3.6975-3.3506-5.5446-5.0792-1.8474-1.7286-5.2084-4.8689-7.4673-6.9805-2.2584-2.1116-6.013-5.6676-8.3429-7.902l-4.2373-4.0628 1.984-2.3972c2.8944-3.4989 3.8089-6.3767 3.5759-11.239-0.31635-6.5977-3.3897-11.28-9.1848-13.985-2.9969-1.399-6.0621-1.8358-8.946-1.4971zm236.57 0.90624c-3.653 5e-3 -4.9174 0.23378-7.256 1.3196-4.9859 2.3146-7.7448 5.7582-9.0196 11.254-1.1822 5.0975 0.2032 10.196 3.928 14.439l1.5982 1.8186-4.8189 4.5312c-4.283 4.0259-9.6991 9.0292-19.622 18.125l-3.0953 2.8381 2.2993 4.3689c3.0192 5.7409 5.1788 11.197 6.3192 15.957 1.3612 5.6817 1.4114 5.6991 5.364 1.9349 1.8706-1.7817 4.7833-4.5091 6.4722-6.062 1.6889-1.5529 5.0564-4.6784 7.4826-6.9438 2.426-2.2655 7.2569-6.7562 10.734-9.9809l6.3223-5.863 1.641 1.589c0.9033 0.87404 3.0342 2.293 4.7333 3.1535 6.3258 3.2039 14.224 1.655 19.202-3.7658 3.2-3.4847 4.3597-6.4453 4.3597-11.132 0-4.6256-1.1585-7.6547-4.1944-10.948-3.1541-3.4218-6.1239-4.6719-11.674-4.92l-4.6597-0.2082 0.2175-4.5281c0.1907-3.9924 0.064-4.8533-1.0563-7.302-1.7783-3.8842-4.0607-6.287-7.7153-8.1133-2.7716-1.385-3.6572-1.5661-7.5622-1.5614zm-126.33 14.01c-17.446 1.6631-33.615 8.5316-46.711 20.054-4.9288 4.3364-10.428 10.65-14.273 16.389-2.8604 4.2683-5.8032 9.6869-5.8048 10.685 0 0.96964 151.8 0.9432 152.17-0.0279 0.2535-0.66036-1.7604-4.8008-4.3016-8.845-2.6222-4.1732-7.6021-10.339-11.653-14.42-3.9772-4.0074-12.793-11.077-13.811-11.077-0.2672 0-1.1345-0.4617-1.9258-1.0256-2.2655-1.6131-11.253-5.9418-14.938-7.1948-6.7506-2.2961-13.007-3.6245-20.954-4.4455-6.0325-0.62331-11.988-0.64621-17.803-0.0919zm-33.886 22.54c1.0429 0 2.1065 0.97082 2.1065 1.9227 0 0.37781-1.3742 2.1281-3.0525 3.8883-3.5763 3.7513-5.5771 6.2157-8.3521 10.281-2.175 3.1862-2.8726 3.5069-4.2618 1.9717-1.0294-1.1374-0.88583-1.523 2.3422-6.3008 2.6413-3.9091 10.132-11.763 11.218-11.763zm91.705 3.5025c0.8965 0.46929 1.9062 1.4399 3.0127 2.9055 4.678 6.196 7.8227 13.227 6.7845 15.167-0.8834 1.6506-3.0183 1.4391-3.3984-0.33676-0.9453-4.419-3.9645-9.8647-7.605-13.716-2.0702-2.19-2.2881-2.9489-1.1267-3.9128 0.6549-0.54317 1.4365-0.57397 2.3329-0.10724zm-81.467 2.4891c1.5324 0.96048 1.229 2.4179-1.1634 5.5936-1.2802 1.6991-3.152 4.6527-4.1608 6.5641-1.4847 2.8131-2.0693 3.4749-3.0677 3.4749-0.67853 0-1.4554-0.3941-1.7268-0.87866-0.56754-1.0149 1.3868-5.2594 4.574-9.9319 2.766-4.0549 4.4421-5.5131 5.5446-4.822zm67.613 2.8902c0.5 0.20812 1.0241 0.79868 1.6533 1.8033 2.5993 4.151 3.7599 9.9934 2.1094 10.627-1.6891 0.64821-2.2464 0.27508-2.7799-1.8737-0.2992-1.2035-1.1186-3.4123-1.8217-4.9047-1.4211-3.0175-1.576-4.2442-0.6583-5.1619 0.5243-0.52432 0.9974-0.69801 1.4972-0.48984zm-57.791 1.5155c0.91932 0.10658 1.4046 0.50596 1.5094 1.24 0.16531 1.1639-3.3327 7.2252-4.4149 7.6479-0.36012 0.14106-1.1117-0.19931-1.6716-0.75928-0.55981-0.55993-1.0194-1.2248-1.0194-1.4757 0-0.25091 0.95503-1.8842 2.1216-3.6311 1.8078-2.7073 2.3205-3.1557 3.4749-3.0218zm-101.78 44.697-1.3318 1.5829c-1.8988 2.2567-1.8908 5.96 0.0213 7.8714l1.3594 1.3563h251.85l1.6992-1.6441h-0.017c1.4252-1.3813 1.6963-2.0175 1.6963-3.9617 0-1.8124-0.3016-2.6329-1.384-3.7627l-1.3807-1.442zm41.09 14.417v1.6717c0 4.5077 3.7839 16.547 7.9724 25.424 12.223 25.907 34.128 41.62 62.625 44.926 5.3772 0.62392 18.871 0.64904 24.649 0.0474h0.0102c12.512-1.3059 25.548-5.6141 35.046-11.585 6.9485-4.3674 16.17-12.882 21.183-19.552 5.4545-7.2568 10.659-17.251 13.808-26.517 1.7204-5.0623 3.5881-12.316 3.5881-13.933 0-0.29622-32.427-0.48047-84.439-0.48047zm46.745 5.866c2.2077-0.29622 4.4735-0.24943 6.7233 0.15937 2.9997 0.54447 5.9672 1.7331 8.7257 3.6066 3.5782 2.4304 7.0256 6.3138 9.0195 10.168 1.4831 2.8662 1.6101 3.5166 1.6257 8.2755 0.0173 4.0185-0.20671 5.6724-0.9889 7.4642-2.5936 5.9433-6.8698 10.441-12.559 13.202-3.1665 1.5371-4.4677 1.8677-7.9815 2.039-3.5052 0.17063-4.7282 2e-3 -7.4091-1.0225-13.152-5.0263-19.621-20.734-13.37-32.462 3.4991-6.565 9.5911-10.541 16.214-11.429zm71.164 0.56936c5.6347 0 6.0841 0.08 9.338 1.6716 9.5094 4.6525 14.247 13.864 12.347 24.012-1.516 8.0977-7.6899 15.406-14.855 17.58-2.9563 0.89698-9.2151 0.91037-12.752 0.0237-7.8046-1.9526-13.156-6.9447-15.219-14.2-0.36257-1.2743-0.85137-2.5353-1.0869-2.8044-0.57232-0.65366-0.55045-9.2124 0.0234-9.8339 0.24883-0.26898 0.74629-1.4176 1.1053-2.5503 1.7023-5.3735 6.5527-10.42 12.213-12.706 2.5019-1.0102 3.8828-1.194 8.8848-1.194zm-32.931 44.262c2.1287 0.16826 4.1405 1.0406 5.6364 2.584 5.341 5.5099-2.8954 12.566-10.59 9.0716-5.1267-2.3284-5.8037-7.1886-1.3961-10.021 1.9749-1.2689 4.221-1.8034 6.3498-1.635zm-45.269 16.75c-0.76712 0-2.9835 4.3046-4.421 8.5848-0.71813 2.1394-1.3073 4.0675-1.3073 4.2862 0 1.2673 17.042 9.7438 19.646 9.7727 0.66521 6e-3 0.98606-0.81807 1.4451-3.723 0.32472-2.053 0.92278-5.2829 1.3318-7.1795 1.0796-5.0063 1.022-5.3787-0.92461-5.7681-2.1005-0.42005-10.638-3.6049-13.287-4.9568-1.0974-0.55988-2.2158-1.0164-2.4861-1.0164zm92.574 0.59703c-0.7361-0.26602-0.5729 0.59725 0.6338 3.3249 3.1569 7.1375 5.861 19.641 6.6652 30.83l0.5539 7.7214 4.718 4.6537c2.5946 2.5584 7.3639 7.1296 10.599 10.161l5.8815 5.514-1.5309 1.9349c-2.8912 3.6523-3.5414 5.627-3.5178 10.688 0.017 3.9769 0.2133 5.0006 1.3717 7.2101 2.0263 3.8652 5.9838 7.2987 9.7389 8.4501 3.0677 0.94077 9.6742 0.34601 12.592-1.1328v3e-3c2.7438-1.3904 6.282-4.8695 7.657-7.5285 1.2764-2.4681 1.8731-6.6533 1.3839-9.7023l-0.4319-2.7034h3.9128c5.5961 6e-3 8.3726-1.1086 12.179-4.8864 3.8785-3.8496 5.1459-7.2174 4.7209-12.546-0.33-4.1389-1.7211-7.1128-4.7363-10.128-3.431-3.4308-5.9454-4.5098-11.141-4.7731-3.986-0.20204-4.7528-0.0835-7.5377 1.1665-1.7049 0.76516-3.8666 2.1836-4.8037 3.1504-0.937 0.96677-1.9116 1.7574-2.1646 1.7574s-2.5834-2.0286-5.1771-4.5067c-2.5941-2.478-8.0716-7.6337-12.173-11.457-4.1014-3.8227-9.5462-8.9194-12.1-11.328-9.8677-9.3083-16.84-15.71-17.295-15.875zm-5.5201 0.23876c-0.2885-0.17833-2.4171 0.48581-4.7301 1.4757-2.313 0.99-6.5028 2.516-9.3134 3.3892-2.8107 0.87317-5.1055 1.7421-5.1007 1.9319 0 0.19019 0.3265 1.8546 0.7164 3.6954 0.3898 1.8407 0.9899 5.1987 1.3318 7.4642 0.3418 2.2655 0.7277 4.2944 0.8573 4.5067 0.3975 0.65154 1.8205 0.4319 5.5782-0.8603 7.2126-2.4802 16.22-6.7566 16.22-7.7 0-1.848-4.5785-13.296-5.5599-13.903zm-93.517 0.31518c-0.15581-0.15464-1.5014 0.85996-2.9912 2.2534-1.4899 1.3934-10.46 9.7116-19.934 18.486-9.4748 8.7745-18.625 17.264-20.332 18.866l-3.1045 2.9147-2.0666-1.9043c-3.6347-3.3501-6.5372-4.4363-11.848-4.4363-5.3122 0-8.1321 1.0864-11.628 4.4791-6.9787 6.7725-6.1115 18.713 1.7941 24.677 3.1157 2.3502 6.2417 3.2864 10.642 3.1871l3.38-0.0765-0.21127 4.2036c-0.2522 4.9837 0.89781 8.7149 3.6954 11.983 4.5174 5.2776 13.003 7.0463 19.616 4.0903 3.2948-1.4743 6.1989-4.4224 7.8898-8.0092 1.0572-2.2429 1.3392-3.6374 1.3563-6.708 0.0237-4.4079-0.93146-7.1654-3.6862-10.633-1.6304-2.0522-1.6657-2.1865-0.7501-2.832 0.98153-0.69187 10.727-9.6716 17.454-16.083l3.7382-3.5638v-3.6464c0-11.597 2.4551-25.472 6.0039-33.947 0.69471-1.6589 1.1378-3.1455 0.98276-3.3004zm27.674 6.7509c-0.41892 0.41887-2.7846 15.39-2.538 16.061 0.41352 1.1249 13.923 3.6778 20.008 3.7812l3.475 0.0592v-17.865l-6.0498-0.3063c-3.3272-0.16945-7.9694-0.69721-10.318-1.1726-2.3482-0.47516-4.4082-0.72619-4.5771-0.55692zm43.386 0.98888c-0.45676-0.50122-1.758-0.47753-6.2304 0.11968-3.1102 0.41413-6.8548 0.7561-8.3184 0.76238-4.5245 0.0178-4.2894-0.49471-4.2894 9.3318v8.698h3.3311c1.832 0 5.8204-0.36909 8.8633-0.82048 3.0431-0.45205 6.3532-1.0981 7.354-1.4329 1.645-0.5498 1.8112-0.77862 1.7359-2.3941-0.1694-3.6318-1.8873-13.651-2.4462-14.264zm-71.011 8.101c-0.49886 0-2.4034 11.046-2.4034 13.94 0 1.0646 18.007 11.288 19.882 11.288 0.38158 0 0.7946-0.52017 0.91851-1.1573 0.52909-2.7216 1.8569-12.061 1.8553-13.052 0-0.78004-0.60793-1.3402-2.1891-2.0145-7.7934-3.324-10.85-4.7886-14.123-6.7693-2.0331-1.23-3.8072-2.235-3.9403-2.235zm100.16 2.4707c-0.2353-0.2358-2.6162 0.58831-5.2875 1.8339-2.6713 1.2456-7.5202 3.1506-10.777 4.2312-3.2567 1.0807-6.0021 2.0176-6.1018 2.085-0.1541 0.10315 0.7073 6.9397 1.788 14.221 0.1576 1.0619 0.4769 1.9319 0.7103 1.9319 0.2328 0 2.2379-0.77909 4.4577-1.7299 5.7931-2.4811 10.225-4.7692 14.224-7.3478l3.4934-2.2534-0.3277-2.7004c-0.5006-4.1362-1.7009-9.7928-2.1798-10.272zm-75.662 9.1879c-0.61729 0.54508-0.75504 1.9808-1.142 4.9445-0.37914 2.9026-0.78993 6.4679-0.91231 7.9235l-0.22339 2.6483 3.5208 1.0685c6.9756 2.1159 14.506 3.4838 19.867 3.6097l2.9605 0.0675v-17.506h-3.0738c-3.5342 0-12.858-1.2945-16.986-2.3605-2.2978-0.59342-3.3934-0.94012-4.0107-0.39518zm50.033 0.44079-1.7818 0.0593c-0.98077 0.0296-4.9119 0.54922-8.7347 1.1481-3.8231 0.59915-8.0508 1.0929-9.3961 1.0991l-2.4463 0.0125v17.506h2.3207c1.2762 0 4.6952-0.34835 7.5959-0.77149 5.7722-0.84342 11.969-2.1982 13.382-2.9238 1.1235-0.57646 1.1168-1.9225-0.048-9.9503zm-77.199 6.9499c-0.13811 0-0.25122 1.8148-0.25122 4.0322 0 4.6817 1.4575 13.295 3.0647 18.106 5.6083 16.788 18.375 27.446 36.323 30.322 1.9821 0.31754 4.1814 0.67362 4.8894 0.79294 0.70793 0.11913 5.5745 0.14108 10.814 0.0473 7.2398-0.12792 10.664-0.42065 14.27-1.2246 19.538-4.3559 31.682-16.835 35.649-36.635 1.0986-5.4795 1.4046-12.588 0.5664-13.107-0.2678-0.16528-1.5998 0.38451-2.9606 1.2216-2.2186 1.3649-6.9724 3.6802-11.998 5.8477-16.199 6.9853-38.542 9.1996-55.62 5.5078-10.303-2.2275-22.381-7.147-30.803-12.546-2.0307-1.3016-3.8047-2.3666-3.9434-2.3666zm874.62 140.56c-0.4231 0-1.5573 0.80966-2.5198 1.8002-1.5161 1.5612-2.0781 1.8033-4.1975 1.8033-1.3458 0-2.7083-0.26483-3.031-0.58772-0.4398-0.4396-1.4043 0.0473-3.8361 1.9472-3.3857 2.6409-5.5038 5.8969-5.5446 8.5205-0.017 0.76201-0.2168 1.5083-0.4562 1.6563-0.6694 0.41294-1.1112 14.784-0.5266 17.09 1.1934 4.7062 1.1173 5.3-1.0807 8.6735-1.1431 1.7547-2.0789 3.4118-2.0789 3.6831 0 0.27134-0.4208 0.85616-0.9369 1.2981s-1.9416 2.2292-3.1656 3.974c-1.2238 1.7448-2.4029 3.1749-2.6209 3.1749s-1.2476 1.1559-2.2871 2.5718c-1.0392 1.416-2.2227 2.5748-2.6298 2.5748-0.407 0-1.7174-0.89112-2.9147-1.9808-4.6509-4.2339-12.327-9.3471-14.034-9.3471-0.3466 0-0.8995-0.32111-1.2278-0.71646-0.3281-0.39576-1.0106-0.61279-1.5154-0.48049-0.5048 0.13215-1.22-0.1221-1.589-0.56638-0.3686-0.44436-1.4392-0.80829-2.3788-0.80829-0.9399 0-1.8519-0.23404-2.0269-0.51723-0.1754-0.28319-1.0869-0.51425-2.0267-0.51425s-2.0173-0.36909-2.3942-0.82358c-0.4911-0.59187-1.2326-0.75521-2.6176-0.56934-1.2937 0.17359-2.1285 0.0237-2.529-0.45917-0.3382-0.40701-1.5338-0.72249-2.7493-0.72249-3.242 0-4.7179-0.94179-6.0498-3.8607-1.5943-3.4937-4.1347-7.1848-6.0497-8.7961-1.3455-1.1321-1.6287-1.2116-1.8952-0.51723-0.4148 1.0804-2.1944 1.0394-3.429-0.0765-0.9383-0.84906-1.0202-0.84906-1.641 0-0.3595 0.49175-1.0062 0.89396-1.436 0.89396-1.014 0-1.6617 0.8519-2.4033 3.1566-0.821 2.5508-2.1523 3.6741-3.8483 3.2483-0.7413-0.18602-1.3504-0.54328-1.3504-0.79597 0-0.25238-0.4484-0.45915-0.9981-0.45915-0.5498 0-1.1415-0.23106-1.3163-0.51425-0.1754-0.28319-0.856-0.51425-1.5125-0.51425-0.6566 0-1.4812-0.34956-1.8339-0.77458-0.3526-0.42479-1.1469-0.77156-1.7636-0.77156-0.6166 0-1.3832-0.26246-1.7052-0.58476-0.7074-0.70739-9.4275-0.62345-10.152 0.0979-0.269 0.2678-0.8692 0.48701-1.3349 0.48701-0.4658 0-1.2606 0.45737-1.7667 1.0165-0.506 0.55928-1.4117 1.1671-2.0114 1.3502-2.0584 0.62813-10.875 7.365-14.221 10.866-3.7711 3.9453-5.4215 6.8267-8.2663 14.436-1.0839 2.8987-2.6522 6.2628-3.4872 7.4765-2.3065 3.3524-3.1752 5.8604-3.5087 10.134-0.1754 2.2544-0.6585 4.4347-1.1449 5.1802-0.4621 0.708-1.3187 2.2136-1.9044 3.3464-0.586 1.1327-2.1493 4.1121-3.475 6.6223-1.3255 2.5103-2.4095 4.9873-2.4095 5.5048 0 0.51721-0.2483 1.0944-0.548 1.2798-0.2999 0.18544-0.4959 0.83494-0.4378 1.4451 0.06 0.61012-0.053 1.4732-0.2476 1.9196-0.3674 0.84075-0.067 17.844 0.4774 27.157 0.3295 5.623-6e-4 6.7876-1.8982 6.7876-0.5402 0-1.1168 0.34659-1.2797 0.7715-0.1635 0.42479-0.6284 0.77156-1.0349 0.77156-0.8356 0-5.7773 3.4752-8.2633 5.811-0.9767 0.91766-2.2991 3.1688-3.2545 5.5384-1.2812 3.1786-2.3416 4.7614-5.2138 7.7765-1.9841 2.0826-4.2274 4.5994-4.9843 5.5906-0.7574 0.99112-1.7667 2.092-2.2444 2.4493-0.4774 0.35726-3.4318 4.3296-6.564 8.8266-3.1325 4.497-6.0435 8.3113-6.4692 8.4745-0.4254 0.16353-0.7746 0.64175-0.7744 1.0655 0 0.42361-0.4628 1.0195-1.0288 1.3226-0.5665 0.30334-1.0302 0.94722-1.0319 1.4328 0 0.80759-3.9608 6.8047-10.36 15.697-1.38 1.9175-2.5105 3.7968-2.5105 4.173 0 0.3762-0.7114 1.6685-1.5829 2.8718-2.6832 3.7042-3.6665 6.5773-3.4382 10.064 0.2037 3.1109 1.6893 9.3433 2.4553 10.299 0.2269 0.28319 0.8989 1.9559 1.491 3.7168 1.2832 3.8163 1.4328 8.4738 0.3034 9.4114-0.4248 0.35251-0.7715 1.0617-0.7715 1.5768 0 0.51485-0.2311 1.0802-0.5142 1.2553-0.2833 0.17476-0.5172 1.4836-0.5172 2.9054 0 2.4224 1.2394 6.595 4.0688 13.719 1.5252 3.8391 1.4461 7.5103-0.2051 9.4725-0.7078 0.84146-1.2888 1.8626-1.2888 2.2718 0 0.40939-0.5556 1.6078-1.234 2.6636-0.6729 1.0558-1.524 2.8473-1.8798 3.98-0.3553 1.1328-0.937 2.5229-1.292 3.0891-0.3548 0.56638-1.0584 2.4187-1.5643 4.1179-0.506 1.699-1.157 3.3991-1.4359 3.7781-0.2844 0.37917-0.9136 1.769-1.3963 3.0892-0.4821 1.32-1.4531 3.9522-2.1583 5.8476-0.7052 1.8954-1.198 3.5321-1.093 3.6372 0.105 0.10488-0.3852 1.7723-1.087 3.7077-0.702 1.9355-1.2736 4.1655-1.2736 4.9568 0 0.79112-0.1961 1.561-0.4348 1.7083-0.2382 0.14751-0.8315 2.0715-1.3196 4.2771-0.4882 2.2059-1.3579 5.7476-1.9319 7.8714-0.5733 2.1239-1.1512 4.7884-1.2828 5.9213-0.1317 1.1327-0.4402 2.5228-0.6859 3.0892-0.4738 1.0924-0.7755 2.3955-1.6134 6.9529-0.2862 1.5575-0.7245 3.2942-0.9736 3.8607-0.2495 0.56638-0.5913 2.0722-0.7592 3.3464-0.8979 6.8075-1.6265 11.332-2.033 12.614-0.1788 0.5664-0.548 4.0432-0.8205 7.7246-0.2726 3.6814-0.6372 7.9467-0.8112 9.4788-0.307 2.7015-0.1796 3.4343 1.7297 9.8277 0.853 2.8548 7.4843 12.905 10.143 15.372 1.4544 1.35 1.6469 3.2917 0.7256 7.2836-0.5563 2.4117-1.4768 8.4411-1.4941 9.782-0.03 2.2099 0.9472 6.7105 1.8982 8.753 0.5934 1.2744 1.471 3.3419 1.9472 4.5924 0.4764 1.2507 1.3147 2.8435 1.8645 3.5424 0.5499 0.6988 0.9982 1.554 0.998 1.8981 2e-4 0.34421 0.6678 1.5512 1.482 2.6697 0.8141 1.1241 1.6562 2.606 1.8705 3.2944 0.2144 0.68843 1.3425 2.6172 2.5075 4.2863 1.1651 1.6691 2.3486 3.7374 2.6329 4.5954 0.6321 1.9082 1.4035 2.216 2.5749 1.0502 0.7774-0.78501 0.8777-1.9844 0.7931-10.192-0.053-5.1162 0.1504-11.966 0.4533-15.222 0.302-3.2567 0.6786-7.5426 0.8358-9.5247 0.1576-1.9822 0.4366-3.9534 0.6213-4.3782 0.1851-0.4248 0.6312-3.3205 0.9892-6.4355 0.3577-3.1096 0.8753-7.054 1.151-8.753 0.2755-1.6992 0.7922-5.221 1.1359-7.8286 0.4359-3.2547 0.873-4.8335 1.3929-5.0332 0.4172-0.16649 0.7833-0.21211 0.8146-0.15049 0.03 0.077 0.9508 2.8053 2.0419 6.062 3.1222 9.3152 7.1774 17.011 10.949 20.782 3.3516 3.3517 6.7245 5.4772 8.6949 5.4772 0.6574 0 1.2849 0.26779 1.393 0.59394 0.1098 0.32645 0.7639 0.63262 1.4574 0.68282 0.9111 0.0657 1.312 0.43723 1.4359 1.3379 0.096 0.68583 0.3838 1.4669 0.6429 1.7359 0.2588 0.26897 0.4716 1.8187 0.4716 3.4444-1e-4 1.6257 0.2057 3.0854 0.4592 3.2422 0.2536 0.15701 0.6271 2.1966 0.8297 4.5343 0.2026 2.338 0.5498 4.4838 0.7715 4.7669 0.2216 0.28319 0.5332 1.5577 0.6951 2.8321 1.583 12.481 1.8681 16.293 1.6379 21.881-0.2796 6.7878-0.4468 7.7672-1.8769 10.847-0.5344 1.1514-0.9734 2.3858-0.9734 2.7462 0 0.36022-0.7002 2.1749-1.5585 4.029-0.8582 1.8543-1.4975 3.423-1.4175 3.4873 0.08 0.064 2.1149 0.50483 4.5221 0.97973 8.0318 1.5853 11.146 3.9477 14.472 10.982 1.1505 2.4328 2.3109 4.9988 2.5778 5.7007 0.4687 1.233 0.6037 1.2648 3.9465 0.9491 1.9031-0.1801 4.6903-0.3306 6.1936-0.3306 1.6904 0 2.6124-0.1991 2.4157-0.5172-0.1753-0.2832-1.9541-0.5143-3.9526-0.5143-3.5488 0-3.6247-0.024-3.2177-1.1573 0.4374-1.2163 0.5267-8.6609 0.1254-10.428-0.767-3.3762-2.4468-9.9708-3.0279-11.879-0.2649-0.86966-0.4959-5.271-0.4959-9.7818 0-4.5108-0.266-9.1299-0.5753-10.263-0.9543-3.4917-1.0827-6.7796-0.4378-11.202 1.7203-11.8 2.0077-17.8 1.2736-26.728-0.3886-4.7247 0.2684-6.7169 1.7666-5.3609 0.4953 0.44849 1.6042 0.81433 2.4677 0.81433 0.8633 0 1.8611 0.34718 2.2135 0.77157 0.3525 0.42479 1.1772 0.77469 1.8339 0.77469 0.6566 0 1.3374 0.23106 1.5124 0.51425 0.1753 0.28319 0.7815 0.51425 1.3502 0.51425 0.5683 0 1.7935 0.5812 2.7218 1.289 0.9279 0.70792 1.8988 1.2859 2.1584 1.2859s3.817 2.2024 7.902 4.8925c4.0847 2.6901 7.6339 4.8894 7.8898 4.8894 0.619 0 5.9035 4.7299 6.9438 6.2151 0.9599 1.3702 1.4871 10.508 0.6367 11.034-0.6889 0.42539-0.6331 4.2276 0.036 4.6567 0.3022 0.18723 0.426 0.66385 0.2725 1.0625-0.1536 0.39873-0.067 1.2772 0.1867 1.9501 0.6362 1.6734 4.0877 4.9446 5.217 4.9446 0.5064 0 1.0651 0.23106 1.2401 0.51425 0.1754 0.2832 0.8682 0.51425 1.5429 0.51425 0.6745 0 1.3713 0.23402 1.5462 0.51722 0.1755 0.28321 1.069 0.51425 1.9868 0.51425s1.9309 0.26186 2.2505 0.5818c0.3193 0.31933 2.2245 0.69774 4.2342 0.84195 2.0098 0.1439 3.7775 0.45974 3.928 0.70412 0.152 0.2447 4.1869 0.44732 8.9674 0.44673 4.7807 1.7e-4 8.817-0.20263 8.9675-0.44673 0.1521-0.24467 1.8969-0.55868 3.8822-0.70116 1.9853-0.1428 3.9037-0.49709 4.2617-0.78673 0.3584-0.28972 1.5799-0.64709 2.7126-0.79602 3.1136-0.4094 6.9499-1.5078 6.9499-1.9901 0-0.2352 0.4485-0.42835 0.9981-0.42835 0.5497 0 1.1446-0.23106 1.3195-0.51425 0.1755-0.28319 0.7371-0.51425 1.2522-0.51425 0.875 0 3.4176-0.9852 5.1834-2.0083 3.2121-1.8613 6.5697-2.4759 7.3907-1.3533 0.5627 0.76966 1.0882 0.5664 5.2232-2.0298 2.5281-1.5873 4.9707-3.2264 5.4283-3.6404 0.4521-0.41413 0.9916-0.75302 1.1879-0.75302 0.2945 0 4.9346-3.3447 14.647-10.556 0.7646-0.56757 2.78-2.0657 4.479-3.3281 1.6993-1.2624 4.1652-3.2285 5.4774-4.3719 4.1593-3.6245 6.9546-5.9556 8.6552-7.2101 0.9076-0.66966 1.924-1.5582 2.2563-1.9748 0.7602-0.95291 9.9059-7.5205 11.068-7.948 0.4741-0.17478 1.5791-0.85748 2.4554-1.5155 0.8761-0.65803 1.9356-1.194 2.3514-1.194 0.4159 0 1.7834-0.50773 3.0401-1.1267 2.4641-1.2139 8.4646-1.9113 9.295-1.0807 0.3164 0.31638 0.2944 1.5934-0.064 3.5392-0.8791 4.77-1.0147 5.5007-1.3532 7.4214-0.1753 0.99101-0.5213 2.0572-0.7716 2.3727-0.5745 0.7245-0.8 9.5059-0.2666 10.37 0.4604 0.74478 7.0523 0.90717 7.8286 0.19313 0.2689-0.24765 1.4311-0.5658 2.5842-0.71024l2.0972-0.26008-0.047 9.3348c-0.041 8.5825-0.7421 15.468-1.837 18.088-1.0793 2.5825-2.668 13.049-2.3269 15.333 0.3568 2.3864-0.3839 3.9766-1.6931 3.634-1.0532-0.27549-3.9341 2.6327-4.7608 4.8067-0.571 1.4992-0.6159 7.8888-0.084 8.7502 0.2104 0.3312 1.1914 0.6774 2.1799 0.7714l1.7971 0.1712 0.2571 3.9495c0.2115 3.2474 0.4781 4.1837 1.4909 5.2599 1.1863 1.2606 1.4061 1.3 5.9213 1.0501 2.5789-0.1428 5.6476-0.3875 6.8181-0.5451 1.2883-0.1736 2.2633-0.066 2.4738 0.2755 0.445 0.7199 35.157 0.7785 37.036 0.073 1.4378-0.5469 2.3789-3.0554 2.3789-6.3772 0-1.5135 0.4271-2.473 1.8062-4.0843 0.9913-1.1579 1.7988-2.47 1.7973-2.9147 0-2.2659-1.2958-4.8907-3.5608-7.2529-2.4038-2.5073-3.1289-4.1604-3.1289-7.1429 0-1.7007-2.325-5.2047-3.4535-5.2047-1.7192 0-7.406-3.221-8.7134-4.9353-1.2341-1.6182-1.4975-1.7294-3.4658-1.4542-3.6395 0.50834-10.131 2.2601-11.358 3.0646-1.5515 1.0165-3.6515 4.9589-5.4161 10.165l-1.4359 4.2311-2.1921-0.1475c-1.2053-0.08-2.7171-0.42657-3.3617-0.7715l-1.1727-0.62765 0.9798-3.8302c1.3475-5.2741 2.8255-8.1177 5.6579-10.884 2.7976-2.7324 8.1061-5.6212 10.327-5.6212 0.8439 0 1.9748-0.23817 2.5135-0.52669 0.8025-0.42954 0.889-0.75994 0.4811-1.8338-0.2743-0.72126-0.4988-1.7605-0.4988-2.3085 0-0.54802-1.4872-3.1419-3.3034-5.765-5.3289-7.6967-6.022-10.258-6.7478-24.854l-0.2571-5.1681 2.5411-3.3279c1.3992-1.8303 4.5214-7.2417 6.9377-12.026 2.4162-4.784 4.8661-9.2008 5.4436-9.8155 0.5771-0.61443 1.0526-1.5675 1.0685-2.1156 0.036-1.802 3.2756-7.6344 4.6169-8.3061l1.2857-0.64306 0.3431 3.72c0.1885 2.0454 0.4894 4.4133 0.6673 5.2629 0.3816 1.8202 1.2318 16.666 1.7266 30.12l0.3521 9.5247 1.3687 0.15936c0.7909 0.0906 1.6575-0.18959 2.0572-0.66747 0.3805-0.45441 0.9949-1.1046 1.3624-1.4451 0.3674-0.34066 0.9454-0.92138 1.2859-1.289 0.7119-0.76854 0.8792-0.92921 4.9077-4.7362 2.8151-2.6604 3.5603-3.7039 5.303-7.4336 0.3886-0.83158 2.0973-2.9641 3.7962-4.7394 8.3316-8.7055 8.0437-8.2952 14.457-20.73 3.255-6.3108 4.0386-8.4676 3.8944-10.737-0.06-0.92222 0.1551-2.1651 0.4744-2.7616 0.3246-0.60616 0.5268-2.8764 0.4592-5.1466-0.2803-9.5824-0.1895-10.91 0.9828-14.359 0.6671-1.9612 1.5516-8.8155 1.9258-14.932 0.1301-2.1237 0.4781-4.3378 0.7715-4.923 0.5713-1.1385 0.3455-8.2066-0.4988-15.669-0.2725-2.407-0.7581-6.6959-1.0808-9.5277-0.3228-2.8318-0.9409-5.79-1.3716-6.5764-0.4306-0.78643-0.7152-2.0607-0.6337-2.8321 0.081-0.77126-7e-4 -1.6335-0.1623-1.9165-0.1695-0.28319-0.4751-1.965-0.6765-3.7352-0.2015-1.7704-0.5741-3.3532-0.8298-3.5055-0.2554-0.15761-0.465-0.77749-0.465-1.3779 0-0.60021-0.2139-1.803-0.4775-2.6726-0.2637-0.86968-0.8683-2.973-1.3441-4.6721-1.6809-6.0033-2.9786-10.321-3.7136-12.357-0.8255-2.2866-1.0308-3.05-1.7237-6.4693-0.2619-1.2937-1.4319-5.0015-2.6024-8.2387-1.1704-3.239-3.9125-11.101-6.0926-17.473-2.1803-6.3716-4.4638-12.394-5.0731-13.385-0.6094-0.9906-1.1072-2.077-1.1084-2.4126 0-0.33533-0.2696-1.2634-0.5969-2.0604-0.7005-1.7069-1.8676-4.7109-3.7597-9.6869-0.7537-1.9822-2.163-5.2808-3.1321-7.3326-0.9688-2.0519-1.9132-4.3433-2.1002-5.0884-0.1866-0.74509-1.0922-2.7951-2.0115-4.5588-0.914-1.7636-1.8373-3.7642-2.039-4.4424-0.3608-1.2125-2.2447-5.2162-9.9074-21.055-2.1237-4.3894-4.0543-8.4441-4.2894-9.0104-0.2353-0.56639-0.5209-3.3465-0.6337-6.1783-0.3059-7.6763-0.87-8.9617-5.9763-13.587-7.468-6.765-9.0548-8.5041-14.987-16.429-2.7885-3.7256-11.15-11.736-15.574-14.919l-3.9893-2.8718v-2.933c0-1.6139 0.3477-3.9251 0.7746-5.1344 0.4267-1.209 0.9222-3.7566 1.099-5.6609l0.3218-3.4596-2.1737-2.1737c-1.1946-1.1948-2.9042-2.5044-3.7995-2.9086-0.8955-0.40406-1.9755-0.92542-2.4004-1.1603-2.19-1.2113-3.1399-1.6165-3.7903-1.6165-0.3939 0-1.0234-0.36851-1.396-0.81747-1.1284-1.3594-4.665-2.6916-8.1346-3.0647-2.7416-0.29504-3.5974-0.63955-5.211-2.0972-1.0617-0.95937-2.1908-1.7452-2.5105-1.7452-0.3193 0-0.5818-0.32407-0.5818-0.71949 0-0.81628-3.3395-3.9127-4.2189-3.9127-0.3174 0-1.3522-0.59127-2.2993-1.3134-1.3821-1.0542-1.7207-1.6755-1.7207-3.1413 0-1.5605 0.4473-2.2538 3.0832-4.7699 2.3982-2.2893 3.3152-3.6102 4.1178-5.9426 1.0914-3.1718 1.9376-4.5396 2.5656-4.1516 0.2093 0.1298 0.8192-0.0983 1.3563-0.50536 0.5373-0.40644 1.3236-0.75461 1.7483-0.77156 1.2698-0.0533 4.6614-2.8964 6.7292-5.6487 2.7007-3.5942 7.8967-14.179 7.4858-15.25-0.1806-0.4722-0.064-1.1764 0.2602-1.5675 0.6075-0.7321 0.5733-1.211-0.7195-9.7146-0.6026-3.9655-0.9981-5.0461-2.7279-7.4979-2.4609-3.4876-5.2149-5.9826-6.8764-6.2242-0.8445-0.12322-1.396-0.66961-1.733-1.7237-0.6136-1.9205-1.8202-3.3464-2.8319-3.3464zm-474.99 5.0792c-1.5462-0.25475-1.9147 2.336-0.6062 6.708 1.2091 4.0392 3.3617 13.531 3.3617 14.821 0 0.36141-0.5622 0.79805-1.2492 0.97057-2.261 0.56757-3.0249 1.9492-2.7707 5.0118 0.2151 2.5967 0.1421 2.8116-1.2215 3.5943-0.7984 0.45797-1.4513 1.2583-1.4513 1.7757 0 0.57232-0.6061 1.1699-1.5462 1.5247-2.805 1.0588-1.9399 4.1418 4.3598 15.547 2.2616 4.0942 2.2886 5.2356 0.1469 7.0356-2.4241 2.0396-3.9939 4.3546-3.9739 5.863 0.017 0.82843 0.8902 2.2705 2.3727 3.8913 3.266 3.5704 7.1646 9.149 9.194 13.153 3.4168 6.7403 6.1606 16.783 11.325 41.424 2.1675 10.342 3.582 15.707 4.7149 17.938 0.4539 0.89391 2.7083 3.4874 5.0089 5.762 5.3007 5.2401 7.4879 7.6668 11.827 13.113 1.9178 2.407 3.8845 4.8406 4.372 5.4068 0.8471 0.98388 0.8245 1.1218-0.5635 3.1228-1.489 2.147-1.5023 3.827-0.023 3.827 0.4905 0 0.6595 0.29682 0.462 0.81132-0.1712 0.44553-0.098 1.2102 0.1654 1.6992 0.3352 0.62628 0.017 2.1733-1.0685 5.2384-1.1218 3.1595-1.4039 4.5803-1.0318 5.1833 0.3685 0.5969 0.2891 1.0485-0.2755 1.6135-0.4325 0.43249-0.9535 1.5651-1.1603 2.5166-0.227 1.0444-0.6479 1.671-1.0594 1.5767-1.1281-0.25772-1.5634 1.0843-0.7531 2.3207 0.4123 0.62997 0.75 1.5915 0.75 2.137 0 1.2541-1.453 4.4898-2.9606 6.5947-1.3067 1.8246-1.4336 2.8309-0.542 4.2587 0.4769 0.76409 0.4757 1.2899 0 2.3483-0.6852 1.5036-0.4326 2.3176 0.7194 2.3176 0.6116 0 0.5575 0.38214-0.2879 2.0391-1.1287 2.2124-1.3609 4.1393-0.4989 4.1393 0.298 0-0.036 0.75313-0.7378 1.6747-2.4815 3.2533-2.8433 6.0498-0.7808 6.0498 1.2075 0 1.2797 1.3992 0.1499 3.0096-0.5214 0.74442-0.7318 1.7818-0.5693 2.8167 0.1421 0.90138 5e-4 2.6431-0.3218 3.8699-0.5065 1.9507-0.4691 2.2922 0.3093 2.7279 0.5072 0.28379 0.8909 1.1066 0.8909 1.9134 0 0.77892 0.2417 1.6566 0.5356 1.9503 0.3685 0.3691 0.3685 0.96807 0 1.938-0.2939 0.7725-0.5356 2.0866-0.5356 2.9177 0 1.2443 0.2163 1.5094 1.2155 1.5094 1.1033 0 1.243 0.28023 1.5339 3.0647 0.32 3.0614 0.3175 3.0668-2.4738 7.1182-2.9495 4.2818-7.278 12.712-9.1144 17.748-1.0084 2.766-1.4732 3.2873-5.7834 6.5304-4.5699 3.4386-9.0896 8.255-14.396 15.339-4.2664 5.6906-7.4464 8.597-10.29 9.3899-3.0445 0.84917-6.0008 3.472-6.0008 5.3211 0 3.4696 4.8593 6.2076 12.84 7.2377 4.7872 0.61758 5.271 0.7933 7.9969 2.8964 3.1007 2.3922 3.8761 3.4257 3.8761 5.1527 0 3.0298 5.7344 5.161 14.932 5.5507 6.0712 0.25713 14.393-0.691 19.463-2.2167 1.3048-0.3934 2.4574-0.62842 2.5596-0.5267 0.1475 0.1475-3.5486 18.324-8.7899 43.245-0.7827 3.7215 0.023 6.5838 4.421 15.74 8.6816 18.069 15.232 34.163 19.071 46.855 3.3426 11.051 4.1973 16.285 4.2036 25.742 0 7.238-0.1682 9.1252-1.1604 12.755-0.6696 2.4483-1.0256 4.8122-0.8389 5.5568 0.3852 1.535 2.7105 3.4092 5.713 4.6046l2.1616 0.8605-1.1329 1.7327c-0.6233 0.9525-1.7048 1.8755-2.4033 2.0514-0.6986 0.1759-2.0166 1.192-2.93 2.2594-2.8556 3.336-7.2479 4.4313-14.396 3.5883-3.8849-0.4597-5.0014-0.4195-5.6516 0.1002-1.0108 0.8388-0.6475 3.0448 0.851 5.1497l1.0715 1.5001h14.766c13.85 0 14.872-0.064 16.453-1.0286 2.0651-1.2583 1.9954-1.2727 2.3299 0.024 0.2577 0.9832 0.6101 1.038 5.8446 0.9001l5.5752-0.1475 0.7623-1.5461c1.0114-2.0431 1.3201-9.4362 0.5451-13.088-0.6071-2.8608-0.5919-2.9545 1.0471-5.5905 2.2246-3.5786 2.4992-6.5977 1.0439-11.53-2.4834-8.4182-6.2552-16.872-12.513-28.044-4.8695-8.6939-4.8701-8.6922-9.1697-19.233-7.2253-17.714-15.371-35.398-18.048-39.183-0.6874-0.97168-0.8632-1.8518-0.6429-3.2086 0.2132-1.3139 0.042-2.2738-0.5878-3.2301-0.7582-1.157-0.7923-1.5454-0.2262-2.6023 0.5249-0.98065 0.5355-1.5979 0.053-2.933-1.2748-3.5254-0.529-8.6289 4.1486-28.393l2.192-9.2675 3.3464-0.12211c5.9572-0.21981 7.6735-0.6126 8.548-1.9472 0.7344-1.1211 0.7328-1.3572-0.047-2.6697-0.4704-0.79213-2.3416-2.5708-4.1607-3.9526-1.8192-1.3816-3.3082-2.7719-3.3066-3.0891 0-0.31755 0.8324-1.1406 1.8461-1.8309 2.5277-1.7216 6.8533-6.592 9.7849-11.019 1.3428-2.0275 2.5193-3.7846 2.6116-3.9006 0.092-0.11616 1.037 0.0473 2.1003 0.3614 1.0635 0.31518 2.5443 0.69755 3.2912 0.85117 1.0896 0.22337 1.4258 0.66013 1.7023 2.2136 0.8698 4.8887 4.3253 19.835 8.0674 34.887 5.631 22.65 6.8143 28.622 6.1415 31.045-0.2914 1.049-0.5314 3.7673-0.5326 6.0406 0 4.2938 0.5642 5.822 2.7432 7.3998 0.963 0.69728 0.9851 1.3754 0.7072 21.11-0.2796 19.874-0.4248 22.194-2.9757 47.936-0.6538 6.5959-0.3756 15.267 0.5787 18.021 0.3437 0.99112 1.3768 2.6125 2.2963 3.6035l1.6716 1.8033 0.2784 8.8389c0.1537 4.8845 0.5309 9.3171 0.845 9.8982 1.056 1.9729 2.5655 2.3129 11.23 2.535 7.9064 0.2026 8.3645 0.1617 8.3489-0.7469 0-0.5291-0.356-1.4097-0.7716-1.9595-0.4158-0.5498-0.7592-1.7087-0.7623-2.5749 0-0.8661-0.5741-2.7325-1.2705-4.1484-0.6964-1.416-1.2735-3.1033-1.2829-3.7506-0.017-0.6471-0.3803-1.7342-0.8266-2.4156-0.7629-1.1642-0.7262-1.3899 0.6123-3.7168 0.7832-1.3618 2.3648-3.8638 3.5148-5.5629l2.0909-3.0891-0.047-7.7244c-0.053-8.3102-0.8977-13.228-5.8047-33.724-2.6623-11.119-3.4941-15.844-4.216-23.942-0.5627-6.3255-0.4141-18.666 0.3093-25.788 0.2933-2.8852 0.1938-3.3321-1.2492-5.6058-1.7689-2.7898-2.3253-5.1169-5.174-21.636-3.253-18.865-8.334-47.482-8.5572-48.202-0.1808-0.58357 0.2481-1.0203 1.4297-1.4605 6.3166-2.3531 10.801-4.8884 15.097-8.5326 3.08-2.6129 5.6363-6.1075 5.1005-6.9743-0.3994-0.64696-4.1951-0.47159-11.304 0.52669-6.8106 0.95624-14.496 0.30217-15.023-1.2797-0.096-0.28794 9.3858-3.6914 21.07-7.5622 18.842-6.243 21.312-6.9468 21.863-6.2274 0.3407 0.44613 1.5521 3.5992 2.6913 7.0051 2.1274 6.3591 3.7564 9.4092 5.2293 9.794 0.4609 0.12085 1.737-0.0876 2.8349-0.46567 1.2805-0.44019 2.1741-0.50774 2.4923-0.1896 0.8642 0.86422 3.681 0.55337 4.6444-0.51128 0.5001-0.55277 1.2148-2.4645 1.589-4.2496 0.3744-1.785 1.4908-5.135 2.48-7.4458 0.9891-2.3106 1.9498-5.222 2.1368-6.4691 0.2969-1.9776 0.1631-2.479-1.0347-3.9036l-1.3748-1.6319 1.3961-0.52965c2.343-0.89069 26.292-8.7469 26.66-8.7469 0.1926 0 0.349 0.4716 0.349 1.0469 0 1.7295 1.0926 1.6458 5.9334-0.45027 7.4857-3.2409 16.133-5.2261 22.778-5.2292h3.224l1.0746 2.2166c1.222 2.5154 3.4814 4.2573 6.1202 4.7211 2.4946 0.43842 5.9862-1.4157 7.9295-4.2128 1.2748-1.8351 1.5427-2.7956 1.7419-6.2396 0.2726-4.7042-0.2612-6.7306-2.7431-10.419-0.954-1.4175-1.6183-2.8824-1.4758-3.2546 0.1427-0.37206 0.9461-1.1792 1.7818-1.7972 1.9223-1.4207 1.9099-2.8251 0.017-4.7363-2.9863-2.9863-6.9856-1.2036-5.5907 2.4922 0.3376 0.89408 0.4768 1.7617 0.3121 1.9257-0.3703 0.37029-4.0291-1.3313-4.0291-1.8737 0-0.21624 0.7442-1.0883 1.6533-1.938 1.4626-1.3668 1.5948-1.7127 1.1482-2.9881-0.2956-0.84414-1.301-1.8678-2.4248-2.4707-1.7669-0.94811-2.0328-0.96618-3.3341-0.23876-1.6513 0.92282-2.033 2.2167-1.145 3.876 0.3554 0.65104 0.5017 1.5306 0.34 1.9533-0.2434 0.63359-0.6164 0.66902-2.128 0.205-2.1716-0.66646-2.2677-1.1558-0.5449-2.7524 1.683-1.5602 1.6606-3.4523-0.07-4.8098-1.9576-1.5397-4.5694-1.4152-5.6732 0.26957-0.8273 1.2635-0.8348 1.4321 0.076 3.1045 1.1531 2.1412 0.6152 2.9159-1.7023 2.4524-1.8961-0.37917-2.1934-1.6671-0.6123-2.6544 2.1274-1.3286 0.6801-4.8189-2.3085-5.569-1.4366-0.36083-3.7097 0.82842-4.2435 2.2196-0.1752 0.45619 0.069 1.505 0.5422 2.3299 1.4033 2.4451 1.1519 2.9606-1.4542 2.9606-2.679 0-2.9658-0.70977-1.2338-3.0524 1.3512-1.8278 0.957-3.3585-1.145-4.4454-1.6454-0.85024-3.2112-0.62083-4.7028 0.68886-1.1778 1.0354-1.1548 2.2302 0.157 4.4179 1.1717 1.9859 1.0257 2.2114-1.5707 2.4646-1.5599 0.1522-1.7778 0.0356-1.6257-0.85114 0.096-0.56401 0.5007-1.3899 0.9003-1.8369 0.9663-1.0821 0.9132-2.4993-0.1255-3.6525-1.0971-1.2121-4.6306-1.2667-5.9303-0.0889-1.1126 1.0068-1.227 2.9064-0.2357 3.8974 1.5395 1.5399 1.3988 2.6833-0.6614 5.4252-1.1066 1.4726-2.4159 3.7807-2.9116 5.1312-0.496 1.3508-1.1548 2.7203-1.4634 3.0402-0.8744 0.90676-30.216 10.486-32.12 10.486-0.9317 0-2.3218 0.46153-3.0891 1.0226-1.2155 0.8891-16.319 6.1876-17.638 6.1876-0.8468 0-0.5297-2.4504 0.3613-2.7923 0.7358-0.28262 0.8085-0.95807 0.5451-5.0731l-0.3063-4.7516 1.6441-0.7715c2.4731-1.1622 2.4441-2.7814-0.083-4.9445-1.9315-1.6535-4.5458-5.1908-4.127-5.5844 0.1034-0.0965 1.0589-0.53796 2.1248-0.97975 2.7131-1.1244 2.9143-2.112 0.8602-4.2312-1.332-1.3743-1.5751-1.9058-1.096-2.385 1.0328-1.033 0.6989-2.0563-1.9626-6.0069l-2.5563-3.7902 1.2797-1.0073c1.7997-1.4156 1.612-2.4319-0.9951-5.3425l-2.2778-2.5412 2.0207-1.9502c2.3142-2.2344 2.4306-2.685 0.943-3.5821-0.8537-0.51485-4.0751-5.851-4.0751-6.7508 0-0.11678 0.4628-0.33354 1.0256-0.48048 1.9834-0.51841 2.1659-2.5741 0.548-6.1354-0.8099-1.7828-1.9559-3.8528-2.5471-4.6016l-1.0746-1.3624 1.2827-0.32171c1.6293-0.40879 1.6274-1.3438 0-2.8779-1.7709-1.6631-1.6232-2.0574 0.7715-2.0574 1.7935 0 2.0605-0.15158 2.0575-1.1604 0-2.3593-2.7264-5.2387-6.3897-6.7692-1.8856-0.78815-1.9483-0.88526-1.148-1.7696 0.4663-0.51425 0.848-1.1666 0.848-1.445 0-0.27847 0.462-1.4637 1.0288-2.6361 0.5663-1.1722 1.0287-2.5386 1.0287-3.0371 0-0.49885 0.6362-1.4148 1.4114-2.0329 1.2685-1.0115 1.4517-1.579 1.8307-5.6824 0.2318-2.5076 0.4871-5.2591 0.5694-6.1171 0.081-0.85799 0.6507-2.9028 1.2644-4.5434 0.614-1.6406 1.0091-3.1614 0.8758-3.377-0.6684-1.0812-1.744-8.4587-1.6962-11.631 0.053-3.4604-0.07-3.8779-2.1401-7.4642-0.2453-0.42479-0.8086-1.6219-1.2523-2.6606l-0.8051-1.889 7.3081 0.086c8.0015 0.0948 9.6257-0.31873 9.6257-2.4524 0-1.3806-2.5742-3.873-5.5478-5.37-2.063-1.0382-11.821-4.4453-14.144-4.9384-1.279-0.27134-1.4175-0.51662-1.4175-2.5197 0-1.7068 0.3009-2.4986 1.3041-3.4412 1.3004-1.2217 2.4321-4.3996 3.0954-8.6858 0.4633-2.9968 1.5692-5.5557 3.3923-7.8592 1.9189-2.4247 3.0218-5.0907 3.0218-7.3019 0-1.6407 1.6913-6.3365 4.8281-13.395 2.6334-5.9252 0.5196-4.7036-5.4772 3.1627-2.004 2.6284-3.8094 4.5965-4.0107 4.375-0.2015-0.22156-1.3494-4.34-2.5534-9.1542-1.2037-4.8142-2.4204-9.046-2.7034-9.4023-0.391-0.49232-1.3351 0.0646-3.925 2.3115-1.8743 1.6265-3.523 3.075-3.6647 3.2208-2.8548 2.9375-9.9488 8.7867-10.244 8.447-0.2185-0.25239-2.4378-3.8172-4.9322-7.9235-6.2028-10.211-7.9663-12.871-8.5297-12.871-0.2648 0-2.4228 2.9033-4.7945 6.4539-5.0098 7.5012-4.1507 7.8922-7.4336-3.3647-2.8983-9.9378-3.353-9.5422-3.8546 3.3463-0.4994 12.835-0.513 13.679-0.4591 29.067 0.023 6.9262 0 12.647-0.07 12.709-0.062 0.0623-2.0785-0.35785-4.4821-0.93379-5.7191-1.3701-14.803-1.5904-15.581-0.37679-1.8848 2.9402 3.6246 7.6239 11.441 9.7267 2.2851 0.61475 2.2901 0.61965 1.1512 1.4787-1.6811 1.2681-4.2111 6.6732-4.1271 8.8174 0.042 0.99606-0.3312 2.5904-0.8236 3.5423-1.2195 2.3585-2.4017 7.0658-2.2686 9.041 0.06 0.89301-0.076 1.9227-0.3034 2.2901-0.2268 0.36673-0.7062 2.0962-1.0654 3.8392-0.5119 2.4846-0.5207 3.6134-0.042 5.2323 0.3383 1.1356 0.5196 3.0244 0.404 4.1975-0.1866 1.888 0.018 2.3836 1.7512 4.3046 1.9016 2.1048 1.9326 2.1911 0.9522 2.9086-0.6363 0.46567-1.4891 0.61089-2.2992 0.38866-2.0622-0.56521-6.7439-0.54507-7.1214 0.0356-0.1907 0.29091-0.3459 1.1076-0.3459 1.8155 0 1.0978-0.2631 1.3108-1.8002 1.4451-0.9912 0.0866-2.0764 0.51425-2.4096 0.94912-0.3827 0.49884-0.9915 0.66663-1.6563 0.45618-1.3897-0.44079-9.491-9.0785-11.695-12.47-0.9545-1.4686-2.1552-2.9743-2.6697-3.3464-1.0244-0.7404-1.5747-3.0749-3.1994-13.551-0.9979-6.4335-4.0159-21.809-4.4057-22.448-0.1032-0.17003-0.6608-3.3398-1.2368-7.0448-1.3685-8.804-1.3655-18.473 0-29.165l1.0562-8.2021-1.2491-1.2491c-0.9899-0.98976-1.9604-1.3049-4.6598-1.5217l-3.4107-0.27548v-3.279c0-2.9435-0.16-3.4476-1.5461-4.8986-1.6566-1.7335-1.669-1.7744-4.1423-12.277-4.7644-20.232-5.8539-23.946-7.501-25.592-0.7599-0.75988-1.4066-1.1631-1.9227-1.2492zm-1133.1 107.18c-7.1103-0.0177-12.758 6.4759-13.71 15.77-0.19636 1.9157-0.77265 4.1894-1.2798 5.0486-0.76204 1.2916-0.82927 1.9202-0.39499 3.6219 0.28901 1.1328 0.64546 2.5492 0.79296 3.1474 0.36312 1.4733-1.4895 4.952-3.9434 7.406-1.9318 1.9318-2.1235 2.0033-4.5618 1.7145-5.3842-0.63765-8.9749 1.56-18.688 11.429-4.836 4.9134-7.6705 7.3721-9.5737 8.3062-2.8427 1.3954-3.0634 1.6698-2.1186 2.6146 0.43493 0.43487 0.14955 0.84674-1.1175 1.6165-1.4945 0.90894-1.8575 0.94822-3.034 0.34007-0.73559-0.38036-2.4218-0.85438-3.7474-1.0532-2.1219-0.31815-2.7491-0.16588-5.2384 1.2583l-2.8289 1.6166-1.39-2.4646c-7.6258-13.517-17.335-21.949-30.472-26.455-4.8562-1.6663-5.2763-1.7203-13.254-1.7359-9.1275-0.0177-11.746 0.49174-18.694 3.6433-12.263 5.5624-23.021 17.188-28.4 30.69-9.2172 23.142-5.5891 49.973 9.2767 68.602 6.1696 7.732 14.196 13.464 23.143 16.53 2.9297 1.0037 3.3298 1.2984 3.23 2.3605-0.59256 6.3069-1.2987 10.548-1.8706 11.218-0.37871 0.44376-0.82015 1.1782-0.97972 1.6319-0.18289 0.519-1.1633 0.94457-2.6483 1.1482-3.1264 0.42835-7.1637 2.5223-8.5113 4.4149-2.1875 3.0719-2.6085 5.3779-2.6085 14.273 0 5.7263-0.17964 8.4317-0.56029 8.4317-1.0392 0-13.588 1.5503-14.818 1.8309l-1.2216 0.27844 0.35208 10.658c0.19266 5.862 0.68546 19.463 1.0961 30.224 0.41058 10.761 0.98073 26.166 1.2644 34.238 0.28372 8.0708 0.74071 19.773 1.0165 26.002 0.27573 6.2291 0.50435 11.964 0.50821 12.742 0 1.3848 0.07009 1.4146 3.0739 1.4146 1.688 0 5.3382-0.21862 8.1102-0.487 2.772-0.26839 6.5953-0.60584 8.496-0.75006l3.4566-0.26364 0.32758 1.9074c1.2836 7.4706 4.7714 19.273 7.4367 25.164 1.5408 3.4054 4.9826 7.5203 7.2836 8.7103 1.9958 1.0321 5.4051 0.90948 9.5216-0.34008 7.6055-2.3086 11.901-6.8714 12.439-13.217 0.18877-2.227 0.40111-2.7036 1.2032-2.7034 0.53554-1.3e-4 1.8199-0.77672 2.8565-1.7268 1.6946-1.553 1.909-2.0436 2.1125-4.8558l0.22656-3.1259-3.6035-3.8086c-3.429-3.6226-4.7333-5.5018-5.465-7.8805-0.31057-1.0096-0.02604-1.0923 5.7283-1.6686 3.3292-0.33356 9.2608-0.87719 13.18-1.2063 5.2047-0.43724 7.1981-0.79068 7.3999-1.3166 0.15173-0.39578 2.5e-4 -5.5184-0.32455-11.38-0.33064-5.8615-0.81197-16.796-1.0716-24.3-0.94128-27.224-2.0703-55.018-2.5687-63.293-0.28-4.6528-0.44145-8.5293-0.3582-8.6125 0.0837-0.0829 1.6852 0.96796 3.5576 2.333 6.5835 4.7995 15.694 8.8174 19.992 8.8174 6.89 0 15.006 2.4576 15.902 4.816 0.23075 0.60745 0.23348 2.2642 0 3.68-0.22776 1.416-0.19487 5.3786 0.0704 8.8083 0.26602 3.4298 0.37468 7.8395 0.24191 9.7848-0.13231 1.9508-0.38586 15.247-0.56337 29.548l-0.32146 25.999-1.3226 3.0677c-0.85155 1.9748-1.4038 4.3568-1.5492 6.6928-0.12838 2.0502-0.66776 4.6052-1.243 5.8783-4.5565 10.083-6.2827 20.273-6.8611 40.484-0.38943 13.604-1.2013 19.686-2.9238 21.961-1.678 2.2165-2.0725 3.9153-1.4451 6.1876 0.37383 1.3532 0.31559 2.2794-0.21738 3.5729-0.39564 0.9602-0.88882 3.0101-1.096 4.5463-0.20707 1.5415-0.80655 4.0608-1.3349 5.5968-0.52859 1.5359-0.83425 2.9983-0.67967 3.2483 0.15377 0.25 3.9624 0.4532 8.4623 0.4532h8.1806l-0.0826-6.8426h6e-3c-0.074-6.1669 0.0237-7.0197 1.0134-8.6247 0.95805-1.5548 1.0938-2.5306 1.0715-7.7-0.029-6.882 0.81195-11.492 4.9721-27.288 3.5339-13.418 4.3456-17.424 4.721-23.308 0.27675-4.3269 0.46486-4.9939 2.1125-7.4519 2.4175-3.6058 3.1845-5.9407 3.2117-9.7635 0.0196-2.4676 0.53439-4.5742 2.2778-9.2675 2.9712-7.9978 5.8608-18.889 10.085-37.998 0.62583-2.8318 1.3293-5.8431 1.5614-6.6926 0.23214-0.84964 0.56237-2.1819 0.73478-2.9606 0.29429-1.3283 0.48535-1.4146 3.0616-1.4146h2.7463l0.33984 4.8436c0.31039 4.4175 1.3666 12.424 3.1688 23.991 2.6139 16.775 2.5479 15.942 2.1646 26.771-0.14201 4.0421-0.58096 7.683-1.1757 9.785-1.2066 4.2636-1.2263 18.824-0.0367 29.863 0.44173 4.1062 0.96139 11.767 1.1542 17.026l0.35208 9.5614-1.4542 2.4769c-1.3805 2.3557-1.4231 2.62-0.88174 5.3701 0.58441 2.9689 0.50312 3.8043-1.1634 11.962-0.65228 3.193-0.76695 4.8509-0.41027 5.9213l0.496 1.4879 18.106 0.1351c19.793 0.1476 18.666 0.3336 17.534-2.9147-0.45107-1.294-1.3032-2.0121-3.9924-3.3738-4.0393-2.0455-6.4795-3.7803-10.495-7.4581-2.9364-2.6894-2.9606-2.7341-2.9606-5.6273 3e-5 -1.9794-0.34653-3.5656-1.0808-4.9353-0.98842-1.844-1.077-2.7984-1.0287-11.062 0.029-4.9741 0.29001-12.055 0.58172-15.737 1.1394-14.384 1.4921-20.28 1.5094-25.258l0.0183-5.1771 1.7972-1.739c2.5055-2.4285 3.6186-5.6268 3.4964-10.048-0.27461-9.9383-0.17236-13.272 0.54494-17.764 4.0325-25.224 4.8275-34.966 4.0322-49.427-0.28816-5.2389-0.51757-11.03-0.51129-12.871 0-1.8406-0.029-4.5401-0.0796-5.9976-0.0974-2.8075 0.71357-4.9453 2.4891-6.5519 0.82919-0.75055 1.4844-0.88113 2.982-0.60006 5.7635 1.0811 10.49-0.0629 15.611-3.772 2.9112-2.1082 3.8523-2.1327 3.4382-0.0533-0.40052 2.0052 0.9434 2.7097 2.1799 1.142 0.45926-0.5824 2.1365-1.8817 3.729-2.8871l2.8963-1.8278 0.34598 13.235c0.18875 7.2778 0.56133 30.246 0.82968 51.043 0.26835 20.797 0.66326 37.981 0.8787 38.188 0.21541 0.20678 5.1431 1.9246 10.948 3.8148 5.8053 1.89 10.845 3.6732 11.199 3.9648 1.1826 0.97389 0.72117 3.3678-1.0318 5.364l-1.6716 1.9043-0.26943 16.686 1.6808 2.5013c2.1842 3.2531 5.8552 5.1532 11.414 5.9091 7.5172 1.022 12.609-0.60526 17.344-5.5477 4.7823-4.9914 7.9022-12.323 9.6839-22.766 0.54256-3.1803 1.1025-5.8995 1.2461-6.0437 0.32867-0.32881 11.312-1.7096 13.734-1.7268 0.9911 0 2.097-0.19789 2.4554-0.42539 0.52395-0.33296 0.54645-9.5261 0.11945-46.974-0.29287-25.609-0.6674-49.582-0.82969-53.275l-0.29392-6.7142-9.9472-5.1068-0.3184-7.7244c-0.35223-8.4955-0.94291-12.117-2.4493-15.051-1.5735-3.065-3.2438-3.7413-9.2369-3.7413-5.0806 0-5.1702-0.0177-6.4386-1.5277-1.5148-1.8002-2.7159-5.3366-3.1596-9.2858l-0.3184-2.8321 4.5189-1.1664c8.6941-2.2455 15.618-6.3514 22.083-13.098 9.4861-9.8983 14.91-22.09 16.236-36.504 1.6852-18.316-3.3446-34.822-14.613-47.957-5.3986-6.2933-13.894-11.839-22.007-14.368-5.2287-1.6302-17.441-1.7519-22.653-0.22631-4.3127 1.2623-10.752 4.4378-14.674 7.2377-4.2845 3.0593-10.348 9.5534-13.358 14.307-2.4251 3.8303-2.6036 3.9893-4.4761 3.9893-1.0728 0-3.0979 0.45443-4.5006 1.0073-2.3052 0.9086-2.6156 0.92518-3.2208 0.19612-0.56628-0.68217-0.47561-0.96519 0.59702-1.8339 0.69802-0.56522 2.602-1.7004 4.2312-2.5228 1.629-0.82233 2.9636-1.7906 2.9636-2.1523 0-0.36141-1.3322-1.3089-2.9606-2.1034-1.6282-0.79437-7.1207-4.0029-12.204-7.1305-5.0827-3.1276-11.221-6.6375-13.643-7.801-3.783-1.8176-4.8913-2.1193-7.8714-2.137-3.2428-0.0177-3.5863-0.13621-5.2966-1.7941-1.7438-1.6901-4.8802-7.1613-4.8802-8.5144 0-0.35132 0.57758-1.8774 1.2828-3.3922 1.4708-3.1593 1.5738-4.3616 0.58168-6.7264-0.39019-0.92993-1.1052-3.4299-1.592-5.5538-2.2128-9.6537-6.3619-14.382-12.629-14.399zm1207.4 2.6819c1.2702-0.50061 3.6418 1.3045 6.3835 5.0395 2.2397 3.0509 3.0487 3.1611 7.0876 0.97359 2.1067-1.1411 3.446-1.5306 4.8527-1.4145l1.9441 0.15938-0.1102 2.6942c-0.109 2.6244-0.07 2.7054 1.5431 3.1718l1.6564 0.47753-1.8034 0.0592c-1.5026 0.0473-1.9276 0.33474-2.5717 1.7207-0.9129 1.9646-2.2957 2.293-4.2219 1.0072-0.7631-0.50951-2.2196-2.02-3.2393-3.3555-1.0333-1.3531-2.2761-2.4279-2.8075-2.4279-0.5243 0-1.9639 0.57823-3.1963 1.2828-2.2806 1.3036-5.2354 1.6608-6.5978 0.79906-0.4864-0.30749-0.7243-1.2156-0.6704-2.5626 0.07-1.7799-0.1226-2.1984-1.3074-2.8412l-1.3869-0.75622 1.4298-0.0177c1.4505-0.0237 1.5852-0.19196 2.14-2.7248 0.1517-0.69342 0.4521-1.1159 0.8757-1.2828zm-1197.1 15.033c0 0.81961-1.5744 3.2388-2.9728 4.5679l-1.5186 1.4451-2.1523-1.1206c-2.7868-1.4526-7.1696-1.2266-8.9675 0.46212-0.65327 0.61367-1.327 1.1145-1.4971 1.1145-0.16931 0-1.2559-1.0739-2.4126-2.3881-1.7714-2.0123-2.5379-3.2838-1.9748-3.2729 0.0701 0 1.5185 0.57706 3.2178 1.2767 5.1495 2.1213 12.342 1.4633 16.94-1.5492 0.73597-0.48226 1.3379-0.72398 1.3379-0.53559zm1493.5 15.737c0.8668 3e-3 1.6349 14.451 1.6349 30.763v16.551l-1.6748 1.2552c-0.9204 0.69069-2.8307 1.8692-4.2464 2.6177-5.1587 2.7267-18.136 10.636-21.624 13.18-1.1327 0.82584-2.2 1.5091-2.3728 1.5185-0.1731 0.0125-1.0527-1.3658-1.9534-3.0555l-1.6347-3.0738 0.047-10.958c0.053-12.508 0.8519-26.797 1.6042-28.77 0.6596-1.731 5.8513-5.9511 13.422-10.905 5.4421-3.561 15.68-9.1205 16.796-9.1236zm53.973 14.423c0.1442-0.14516 0.6112 0.19965 1.0349 0.7654 0.5764 0.76941 0.6733 1.6106 0.3826 3.3433-0.2131 1.2743-0.36 3.2609-0.3275 4.4118l0.059 2.091-4.9692 1.0196 1.0411-1.4053c0.6047-0.81801 1.3488-3.197 1.7788-5.6854 0.4065-2.3527 0.8553-4.3952 1.0011-4.5404zm7.5836 4.0168c1.0178-0.67842 1.2272 0.0978 0.5421 2.0176-0.3796 1.0652-0.6977 2.8049-0.7134 3.8669-0.017 1.0619-0.1978 1.9064-0.4101 1.8737-0.2121-0.0356-0.8128-0.1718-1.3345-0.3063-0.6081-0.15701-0.8485-0.55098-0.6706-1.0991 1.2846-3.9545 2.1396-6.0547 2.587-6.3529zm-15.198 3.3923c0.041 0.82281 0.6269 2.2223 1.3042 3.1106l1.2308 1.6135-1.9869 1.8063c-1.7588 1.5982-1.9552 1.6713-1.6962 0.63986 0.1618-0.64092 0.4692-2.8536 0.6859-4.9169 0.2168-2.0634 0.4247-3.0763 0.462-2.2534zm-336.01 11.42c0.8914-0.17834 2.8239 0.0533 4.4577 0.52669 1.5864 0.46211 3.1731 0.92008 3.527 1.0165 1.0238 0.27903 0.7596 0.82298-1.6593 3.426-2.411 2.5946-3.4719 2.9289-5.2844 1.6594-0.7296-0.5107-1.6106-0.66591-2.5075-0.44079-1.2586 0.31519-1.354 0.23521-1.0838-0.88786 0.1635-0.67812 0.4503-2.0758 0.6369-3.1076 0.2843-1.5723 0.5943-1.9282 1.9134-2.1921zm342.6 0.93074c1.7645-0.25476 3.6939-0.15173 5.5079 0.35191 2.2279 0.61866 2.1711 0.0296 0.7193 7.449-0.7179 3.6709-1.1839 4.9007-1.8307 4.8282-0.1962-0.0237-2.5456-2.2537-5.2201-4.9598l-4.8619-4.92 1.1727-0.94911c1.1507-0.93182 2.7484-1.5454 4.5128-1.8002zm-346.38 9.1542 2.1064 0.47457c3.1249 0.70211 3.9655 1.4227 5.321 4.5618 1.9 4.3993 2.6911 8.0241 2.1126 9.6747-0.4716 1.3462-0.6658 1.4152-4.0904 1.491-1.9763 0.0415-4.5059-0.10122-5.6211-0.32171-3.2152-0.635-4.0581-2.1049-3.7718-6.5733 0.2049-3.2025 0.4981-4.1163 2.091-6.5151zm-268.62 13.061c-5.3113 0.0296-8.1801 1.12-11.38 4.3199-2.9685 2.9686-2.6528 4.324 0.4869 2.088 0.7987-0.56818 2.2246-1.1644 3.1688-1.3226l1.7176-0.29089-2.2533 2.0972c-1.6002 1.4869-2.7052 2.0941-3.8057 2.0941-0.8727 0-1.85 0.39279-2.235 0.90011-0.9539 1.2564-0.9003 7.5739 0.1133 12.96 1.0107 5.3795 0.6819 9.7612-0.9001 11.983-0.6088 0.8548-2.2322 2.838-3.6066 4.4087-1.587 1.8136-2.8176 3.8658-3.3709 5.6211-0.4793 1.5203-1.0422 2.7003-1.2522 2.6238-0.2104-0.0765-1.7394-1.7621-3.3984-3.7444-4.8717-5.8189-7.1027-4.7201-3.7627 1.8523l1.5277 3.0095-1.6593-0.2666c-0.9115-0.14516-3.6976-0.64769-6.1937-1.1175-3.8829-0.73073-4.6038-0.75046-4.9874-0.12854-0.2748 0.44494-0.1848 1.2327 0.2329 2.036 0.3744 0.72072 0.9198 1.918 1.2124 2.6606 0.3235 0.82037 1.4258 1.782 2.8106 2.4524 2.6612 1.2881 4.0665 3.5422 2.6881 4.3138-2.3483 1.3142-6.3351 5.0878-7.6908 7.2805-1.1549 1.8686-1.5784 3.2593-1.7329 5.6855-0.1907 3.0019-0.1138 3.2851 1.2062 4.323 0.8567 0.67369 2.1482 1.1083 3.2821 1.1083 1.8709 0 2.3105-0.2512 9.8309-5.6303l2.8289-2.0237 0.6582 2.9025c0.843 3.7126 2.5083 6.5304 5.4283 9.1878 2.0659 1.88 2.3621 2.4383 2.6819 4.9934 0.198 1.5842 0.2003 3.875 0 5.0916-0.1949 1.2166-0.4058 3.6036-0.4685 5.3027-0.1 2.6899-0.3674 3.4224-2.0666 5.664-1.0734 1.416-2.8569 3.3837-3.9648 4.375-1.1083 0.99119-3.0565 3.6504-4.3292 5.9089-2.046 3.6309-2.3145 4.4725-2.3145 7.2714 0 1.7411 0.3531 4.1742 0.7868 5.4038s0.654 2.8583 0.487 3.6188c-0.9824 4.4722-1.1334 10.548-0.4656 18.731 0.3928 4.8139 0.7252 11.533 0.7409 14.932 0.036 7.7573 0.5474 13.286 3.5699 38.616 1.3292 11.141 1.3609 16.722 0.1101 20.387-1.6854 4.9416-1.7345 5.4748-0.5817 6.5487 0.9319 0.86832 0.9943 1.2374 0.5326 3.2392-0.6837 2.9651-0.6862 6.4923 0 6.9132 0.298 0.18425 0.4953 0.94929 0.4378 1.7022-0.1925 2.5294 0.042 3.1955 1.3103 3.677l1.2615 0.48048 0.2511 12.249c0.2945 14.301 0.647 18.409 1.6472 19.239 0.4005 0.33237 0.7287 1.3741 0.7287 2.3145 0 1.1396 0.3501 1.954 1.0532 2.4463 0.9975 0.69869 1.0367 1.0627 0.6981 6.7233-0.3212 5.3763-0.2721 5.9855 0.4958 5.9855 0.4704-2e-4 1.2985 0.2743 1.8401 0.6122 0.7667 0.4776 1.2951 0.4942 2.3911-0.024 1.1366-0.5178 1.4907-0.5361 1.8339 0.024 0.6972 1.0991 0.5106 2.2874-0.8419 5.3457-0.7061 1.5961-1.1533 3.1163-0.992 3.377 0.1617 0.2619 3.3243 0.4106 7.0753 0.3306l6.7846-0.1439 0.4591-2.8962 0.4592-2.8964 3.1903-0.3247c3.0086-0.308 7.0594-1.802 7.6998-2.8381 0.1594-0.2583 0.7513-0.3526 1.3135-0.205 0.6236 0.1629 1.9926-0.3543 3.5117-1.3289 1.3688-0.8784 3.2009-1.7393 4.0719-1.9134l1.5828-0.3182 0.8574 3.7872c0.4704 2.0827 1.2062 5.004 1.6349 6.4906l0.7776 2.7034h14.344v-2.4033c0-6.1453-1.8179-12.641-4.1698-14.895-0.8209-0.7864-1.4941-1.628-1.4941-1.8675 0-0.23995 0.7893-1.2241 1.7543-2.1891 0.9648-0.965 1.9098-2.4531 2.0971-3.3066 0.1891-0.86185 0.7695-1.6876 1.3074-1.8584 0.5326-0.16883 1.4303-1.052 1.9931-1.9626 0.5629-0.91056 1.6165-2.2146 2.3421-2.8962 0.7257-0.68174 1.3197-1.4466 1.3197-1.6992 0-0.43844 2.4699-3.9707 3.1534-4.5098 0.1789-0.14092 1.6483-2.8062 3.2667-5.9212 3.6009-6.931 3.5699-8.0503-0.346-12.525-1.4002-1.6-3.3734-4.3013-4.3874-6.0037-2.5546-4.2895-3.5282-5.2745-11.726-11.861-3.9647-3.1853-8.4169-7.0322-9.8922-8.5511-2.9703-3.0588-4.0955-5.4322-8.646-18.211-1.5126-4.2478-3.3613-9.2271-4.1056-11.068-1.2665-3.1321-1.3381-3.761-1.1359-9.7848 0.1269-3.7568 0.5848-7.8285 1.1022-9.782 0.7202-2.718 0.9222-6.248 1.0716-18.792 0.1017-8.4953 0.3436-18.028 0.5356-21.183 0.3092-5.0599 0.2163-6.1882-0.7838-9.5279-0.6233-2.083-1.655-4.5962-2.2901-5.5874-1.4443-2.2535-3.8382-8.7049-4.4761-12.066-0.5445-2.8687-0.2417-4.4117 0.8634-4.4117 0.9039 0 1.49-1.4413 1.9839-4.8895 0.6099-4.252 3.8167-13.686 6.0406-17.763l0.9828-1.8033-0.3063 2.7676c-0.1695 1.5224-0.8901 4.5368-1.6043 6.6958-2.1719 6.5659-1.6419 13.74 0.9859 13.346 1.3069-0.19609 1.6938-0.95812 2.4309-4.7884 0.5617-2.918 0.6771-3.0891 2.0696-3.0891 1.4305 0 1.464 0.0646 1.1818 2.1216-0.3578 2.6106 0.6257 3.5505 1.8523 1.7696 0.4449-0.64633 1.4991-1.845 2.3422-2.6636l1.5338-1.4879 0.4284 1.1603c0.5587 1.5099 2.4189 3.4781 3.2882 3.4781 0.3756 0 1.148-0.46567 1.7145-1.0318 0.8713-0.87157 1.0285-1.7194 1.0348-5.5323 0.017-6.0856 0.205-6.6887 2.0758-6.4141 3.8826 0.56995 9.8664-5.4294 11.968-11.996 4.2749-13.357-2.3034-25.562-17.724-32.879-8.1224-3.8542-13.248-12.228-17.408-28.442-0.7393-2.8814-2.4494-5.2733-5.1007-7.1366-2.0734-1.4573-2.5265-1.5637-6.6835-1.54zm-2.8749 4.1424c1.3662-0.52434 4.0912-0.34779 4.7455 0.30629 0.8924 0.89237 0.7788 1.2036-0.6919 1.8737-1.5925 0.72535-2.7721 0.74134-3.9678 0.0415-1.1222-0.65355-1.1668-1.8081-0.085-2.2227zm582.52 0.2115c0.2423 0 1.6515 1.7946 3.1321 3.9892 1.4805 2.1946 3.2367 4.4551 3.9006 5.021 2.2759 1.9419 10.997 14.782 10.997 16.178 0 1.7174-3.4 7.7488-6.3926 11.368-1.2884 1.5575-3.2477 4.0056-4.3537 5.4405-1.106 1.4349-2.5573 2.974-3.2238 3.4199-0.6666 0.4461-5.0328 4.6237-9.7054 9.2828-4.6725 4.6595-9.2006 8.8355-10.06 9.2797-1.3997 0.7247-1.6951 0.70888-2.8443 0.0296-0.7004-0.42834-1.7782-1.5106-2.3819-2.4033-1.0288-1.5223-3.653-5.2847-8.0214-11.496-1.0311-1.4662-2.2422-3.538-2.6881-4.6047-0.4461-1.0672-1.3374-2.6499-1.9838-3.5147-2.3763-3.1792-7.5469-12.88-7.5469-14.16 0-0.76029 1.6463-3.9128 3.9769-7.6111 0.2826-0.44849 1.0553-0.0125 2.6453 1.4879l2.2442 2.1217-1.8584 1.7053c-1.0229 0.93697-1.8584 2.1272-1.8584 2.6452 0 3.2185 12.929 25.451 17.231 29.627 1.9185 1.8634 1.9556 1.8754 3.5515 1.0716 2.3656-1.1917 20.676-19.801 24.465-24.866 2.8425-3.7988 3.2174-4.5613 2.9758-6.0498-0.3508-2.1602-4.4037-9.3808-9.9379-17.702-2.3676-3.5606-4.3046-6.8108-4.3046-7.2224 0-0.90901 1.4305-3.0371 2.042-3.0371zm-314.45 1.6012 2.6451 0.30927c5.5551 0.6497 5.2025 0.31578 7.2193 6.8366 1.5752 5.0927 2.3759 9.1111 2.3759 11.913 0 2.1726 9e-4 2.1696-3.8607 1.5063-1.1328-0.19433-2.8013-0.7433-3.7076-1.2216-0.9063-0.47811-2.2044-0.86951-2.8841-0.86951-0.6799 0-1.9838-0.26245-2.8994-0.58178-1.3563-0.47219-1.6085-0.78116-1.3531-1.6716 0.1729-0.60124 0.6438-3.7577 1.047-7.0141 0.4034-3.2564 0.8866-6.6621 1.0746-7.5653zm-432.97 7.4551c-3.9967-0.43485-6.1837 0.55159-9.5798 4.3291-2.0907 2.3255-4.473 7.0881-4.473 8.9399 0 0.36495-0.58118 1.2087-1.2889 1.8737-1.2516 1.1757-1.7595 3.0892-0.82054 3.0892 0.25595 0 0.34191 1.3502 0.19318 3.0004-0.21394 2.3607-0.0356 3.5264 0.8236 5.4711 0.60121 1.3593 1.093 3.2886 1.093 4.2862 0 1.4825 0.42421 2.213 2.3177 4.0016 2.1314 2.0133 2.3145 2.3908 2.3145 4.7057 0 2.3528-0.15117 2.6433-2.3207 4.4577-1.2767 1.0672-2.7766 2.8407-3.3341 3.928-1.2792 2.5079-3.286 3.9347-7.9234 5.6427-3.3824 1.2455-3.779 1.554-5.0731 3.9127-0.77202 1.4072-1.4127 3.3686-1.4236 4.3597-0.0417 3.774-1.7312 8.782-5.7284 16.989-2.2758 4.6726-4.4237 9.6147-4.7761 10.982-0.42834 1.6615-1.2326 3.029-2.4217 4.121l-1.7788 1.6318 0.18069 9.0102c0.0989 4.9557 0.15472 10.111 0.12556 11.457-0.0296 1.3459 0.32289 4.4469 0.78075 6.8917 0.45796 2.4446 0.70728 5.1679 0.55394 6.0498-0.47692 2.7465 0.46331 5.7873 2.9177 9.4266 1.7193 2.5493 2.5137 4.3474 2.9116 6.5948 0.30038 1.6991 0.8769 4.1296 1.2798 5.4036 0.40286 1.2744 1.1042 4.6354 1.5583 7.4673 0.71633 4.4661 0.75888 7.4352 0.33652 22.396-0.2678 9.4865-0.35726 23.327-0.19907 30.757 0.29623 13.936 0.12383 16.478-1.987 28.969-1.4354 8.4988-2.9025 14.623-4.5618 19.049-0.79631 2.1239-1.577 4.7616-1.736 5.8631-0.15936 1.1015-0.8789 2.8932-1.5981 3.98-0.71925 1.0869-1.3073 2.5714-1.3073 3.2973 0 0.7308-0.91375 2.5559-2.0452 4.0874-1.6599 2.2468-2.5854 2.9684-4.9292 3.8453-5.7459 2.1498-10.653 6.3855-9.8431 8.496 0.27371 0.7126 2.5848 0.8082 19.882 0.8082h19.57l0.23581-1.1571c0.13041-0.6373 0.37619-3.7021 0.54801-6.8092 0.21332-3.8508 0.55218-5.9113 1.0624-6.4754 0.4118-0.455 0.75015-1.6934 0.75015-2.7493 0-1.0558 0.49288-4.2806 1.096-7.1671 0.93814-4.4886 1.0121-5.6616 0.51424-8.1104-0.87253-4.2925-0.72279-13.648 0.29389-18.33 0.70814-3.2602 0.88596-7.0033 0.92767-19.481 0.0295-9.5456 0.27609-16.43 0.63987-18.021 0.3235-1.416 0.82624-4.5429 1.1144-6.9498 0.28799-2.4072 0.86785-6.115 1.289-8.2389 1.2892-6.501 3.2692-18.02 3.9617-23.045 0.36134-2.6216 0.84079-4.5843 1.0654-4.3597 0.22452 0.22454 2.5874 6.0776 5.2506 13.006 7.3359 19.083 8.5559 22.144 9.8278 24.68 0.64394 1.2835 1.335 3.4621 1.5369 4.8434 0.20203 1.3816 1.0713 3.9027 1.9319 5.5905 1.3155 2.5888 1.7214 4.3631 2.5564 11.135 0.54618 4.4294 1.6697 11.294 2.4952 15.259 0.82523 3.9646 1.6416 8.1379 1.8156 9.2706 0.17294 1.1327 0.86571 3.9127 1.5369 6.1784 0.8827 2.9792 1.2738 5.7561 1.4114 10.039 0.12086 3.7919 0.44791 6.3828 0.90936 7.2071 0.69216 1.2373 1.116 5.4934 1.1113 11.199 0 1.8845 0.20081 2.7034 0.6705 2.7034 0.8889 0 1.5168 4.4767 1.1573 8.2389l-0.12248 1.2858 11.548 0.1411c6.5581 0.078 11.754-0.067 12.023-0.3365 0.2885-0.2891-0.3786-1.5487-1.7116-3.2269-1.2027-1.5148-2.7244-3.9064-3.3799-5.312-1.0844-2.3254-1.1187-2.6351-0.3886-3.4412 0.7284-0.8051 0.7017-1.1484-0.2786-3.7689-0.6945-1.8558-1.082-4.1172-1.0899-6.3406-0.017-2.6357-0.2518-3.7638-1.0195-4.7455-0.5539-0.70794-1.0102-1.9043-1.0165-2.6605 0-0.75617-0.7058-3.3457-1.5552-5.7529-1.1225-3.1796-1.5462-5.3116-1.5462-7.7979 0-1.882-0.22452-3.8404-0.49878-4.3536-0.50661-0.94709-1.793-6.8182-3.3342-15.219-1.1999-6.5406-2.7007-12.611-4.1118-16.631-0.66581-1.8974-1.3626-4.4907-1.5461-5.765-0.35544-2.468-1.0116-4.8039-2.1737-7.7244-0.39461-0.99111-1.2642-4.8146-1.9319-8.4961-0.66764-3.6814-2.3989-12.55-3.8484-19.711-1.4494-7.1609-2.636-13.481-2.636-14.044 0-0.56283-0.46277-2.341-1.0288-3.9524-0.56642-1.6114-1.0287-2.997-1.0287-3.0769 0-0.0818 0.52024-0.157 1.1574-0.157 0.63723 0 1.4897-0.21803 1.895-0.47456 0.81078-0.51307 0.82299-0.43071-1.6716-12.13-2.4214-11.356-3.5973-20.75-2.9943-23.942 0.2945-1.5586 0.51546-3.1787 0.49003-3.6035-0.14822-2.4562 4.1403-13.304 7.2284-18.281 1.0545-1.699 2.3382-4.0457 2.8503-5.2171 1.6232-3.712 4.7589-5.2472 12.978-6.3497 2.2943-0.30809 4.958-0.78389 5.9182-1.0593 0.9603-0.27549 3.3719-0.50181 5.3577-0.50181 1.9857 0 4.3761-0.21862 5.312-0.48699 2.974-0.8516 18.094-0.89978 20.311-0.0356 1.8208 0.69252 2.0055 0.66747 3.0556-0.38273l1.1205-1.1175 1.7544 1.0839c1.1599 0.71688 2.9456 1.1713 5.2751 1.338 3.4012 0.24349 3.5741 0.19729 4.9721-1.3074 0.7963-0.85727 2.7225-2.6428 4.2801-3.9555l2.832-2.3972 1.8523 2.1737c1.305 1.5299 2.1045 2.0732 2.7126 1.8399 1.8145-0.69627 1.5414-1.9315-0.998-4.5098-1.9466-1.9761-2.3555-2.6686-1.8707-3.1535 0.9817-0.98169 0.7538-3.3964-0.3768-4.0015-0.548-0.29327-1.9957-0.53855-3.2178-0.55394l-2.2228-0.0237 2.0544-0.73174c3.0037-1.0695 4.3354-3.4315 2.7003-4.7884-0.8273-0.6869-5.5238-0.8631-8.8542-0.33356-2.5394 0.40347-7.4302 2.6576-9.1634 4.2219-0.8335 0.75242-1.0005 0.72748-2.0942-0.29978-1.1426-1.0733-1.2914-1.0885-3.7289-0.34896-1.7489 0.53025-4.9377 0.77718-10.26 0.79289-4.2477 0.0177-9.3456 0.25357-11.328 0.53558-7.0752 1.0075-14.039 1.087-15.792 0.18069-0.95574-0.49529-2.1895-0.71024-3.0617-0.53558-1.6216 0.32408-4.8362-1.3774-5.3393-2.826-0.15941-0.45739-1.7868-2.2667-3.6158-4.023l-3.3249-3.1932-3.6647 0.15049c-3.6433 0.14876-3.6765 0.13809-5.416-1.7604-0.96256-1.0502-1.7482-2.3482-1.7482-2.8841 0-0.53559-0.34659-1.2639-0.77151-1.6165-1.0535-0.87547-0.97151-2.3968 0.2233-4.075 0.54923-0.77079 1.2903-2.3348 1.6472-3.478 0.4823-1.5443 0.87395-2.0215 1.5217-1.8523 0.58942 0.15409 1.3802-0.51485 2.4462-2.0635 2.5238-3.668 3.3498-6.2126 2.9606-9.1451-0.30986-2.3371-0.25127-2.5564 0.70722-2.5564 1.3177 0 1.3216-0.71991 0.0234-2.8259-0.56459-0.91303-1.8442-3.689-2.8442-6.1692-0.99979-2.4803-2.123-4.9427-2.4953-5.4741-1.265-1.806-4.7959-4.0106-5.9425-3.7107-0.59664 0.15581-1.3713 0.0533-1.7237-0.22632-0.3525-0.27964-2.0796-0.66319-3.8363-0.85421zm740.59 2.9452c0.2919-0.30867 0.4751-0.0533 0.9062 0.38569 0.9648 0.98551 9.0319 16.606 9.0319 17.488 0 0.85196-5.5963 8.2266-6.2428 8.2266-0.2571 0-3.2105 2.6645-6.5641 5.9212-3.3537 3.2566-6.2044 5.9211-6.3314 5.9211-0.1285 0-1.5287-2.26-3.1137-5.021-3.7212-6.4834-7.6111-14.309-7.6111-15.308 0-0.43012 0.3549-0.78074 0.7899-0.78074 1.6906 0 3.3778 1.8093 5.6792 6.0926 2.6437 4.9201 5.3488 8.8003 6.1448 8.8144 1.8791 0.0356 9.8767-10.406 10.391-13.575 0.2081-1.283-0.075-2.2422-1.1634-3.9587-0.7901-1.2458-2.2073-3.6248-3.1505-5.2874l-1.7144-3.0249 1.3868-2.8962c0.8689-1.8155 1.2696-2.6886 1.5615-2.9974zm-1024.7 2.1768c-1.2102 0.0716-2.3342 0.36021-2.6207 0.82358-0.15174 0.24587-0.95254 0.44672-1.7788 0.44672-1.0345 0-1.7645 0.40286-2.3452 1.289-0.46371 0.70793-1.2753 1.2859-1.8033 1.2859-0.59315 0-1.3332 0.73938-1.935 1.9319-1.2423 2.4621-1.9489 12.239-1.1695 16.196 0.29523 1.4991 0.79625 4.5386 1.1144 6.7539 0.48494 3.3773 1.8172 8.1146 3.2912 11.714 0.22904 0.55926-0.10112 1.0042-1.0685 1.4451-1.3451 0.61308-1.5425 0.49649-5.0272-2.988l-3.625-3.6251 0.88175-2.3819c0.48564-1.3103 0.72368-2.6408 0.52966-2.9544-0.19463-0.31401-0.48031-1.3875-0.63988-2.3881-0.22572-1.4175-0.67775-2.012-2.0421-2.6942-0.96346-0.48166-3.0486-2.2827-4.6322-3.9985-2.1933-2.3762-3.2178-3.1184-4.3016-3.1137-0.78269 6e-3 -1.8649-0.27076-2.4064-0.60924-0.76828-0.47988-1.3003-0.4704-2.4187 0.0415-1.4182 0.64619-1.5081 0.57349-8.4837-6.7234-7.7581-8.1152-7.7008-8.0871-10.113-4.5465-1.9359 2.8431-2.2249 2.3735 8.0521 12.99l3.3525 3.4627-1.1512 2.0482c-0.63322 1.1267-1.608 3.3728-2.1646 4.9905-0.88874 2.5835-5.154 10.28-9.9043 17.868-1.2818 2.0478-1.757 2.4305-2.7065 2.192-1.4276-0.35843-2.0251 0.34481-2.8167 3.3066-0.7564 2.8304-1.8407 5.0366-3.2086 6.5336-0.66242 0.725-1.0885 2.0144-1.1879 3.6034-0.0856 1.3611-0.43847 3.6425-0.78683 5.0669-0.9726 3.9745-0.32841 6.2393 2.5748 9.0471 4.6894 4.5349 10.491 5.2748 17.76 2.2656 2.3922-0.99024 5.5397-2.055 6.9927-2.3666 1.4531-0.31163 4.0276-1.1299 5.7222-1.8187 2.6942-1.0946 3.2589-1.1706 4.473-0.59068 1.2594 0.60128 1.4175 1.0004 1.6961 4.2648 0.16933 1.9798 0.48658 4.6827 0.70723 6.007 0.41702 2.5027-0.86963 9.3835-1.8706 10.002-0.2979 0.18425-0.42628-2.7501-0.33066-7.602 0.14202-7.2028 0.0611-8.0577-0.90317-9.6992-1.1501-1.9577-2.4276-2.498-3.6005-1.5246-0.61545 0.51068-0.74696 2.8136-0.75011 13.042v12.424l-1.5308 0.86955c-3.9782 2.2636-4.7358 7.8128-1.7268 12.654 1.4956 2.406 1.5699 2.7811 1.5859 8.1959 0.0196 6.7477 0.25173 7.6543 2.2288 8.6767 0.82958 0.42893 1.5094 0.85948 1.5094 0.95824 0 0.0989-0.45282 1.2056-1.0073 2.4585-1.1577 2.6172-4.6718 17.402-5.8538 24.628-0.44001 2.6901-0.93167 7.785-1.093 11.325-0.67121 14.736-3.2806 26.71-9.5247 43.741-3.4574 9.4308-4.7779 13.379-7.4918 22.396l-1.3869 4.6078 2.7463 2.342c4.4585 3.8023 7.4431 7.0011 8.7532 9.3809 1.5922 2.8916 2.9239 3.0972 5.9579 0.91839 1.4657-1.0526 3.1454-1.7523 4.6016-1.9164l2.2932-0.25714-0.33065 1.485c-0.72157 3.239-1.3841 4.8398-2.7126 6.5519-0.76322 0.98349-1.7614 2.469-2.2197 3.3034-0.46354 0.84521-2.1687 2.2801-3.8454 3.2392-1.6555 0.9472-3.8319 2.4654-4.8374 3.3739-1.0965 0.9908-3.0623 2.0044-4.9108 2.532-7.0066 1.9996-10.565 5.3493-9.7452 9.1725 0.19267 0.8974 0.45064 1.8054 0.57559 2.0178 0.12462 0.2067 10.174 0.3857 22.328 0.3857h22.099l0.34592-1.3839h-3e-3c0.19072-0.762 0.0861-2.3661-0.23573-3.5668-0.35767-1.3374-0.46632-4.0407-0.28165-6.9805 0.22027-3.5053 0.0776-5.7437-0.52659-8.3061-1.0686-4.5274-1.0419-5.7548 0.15613-7.4551 0.7891-1.1191 1.052-2.7126 1.3318-8.0613l0.34901-6.6682 4.8006-5.2905 0.12556 1.8463c0.0682 1.0158 0.50638 4.3466 0.97361 7.4029 0.68167 4.4565 1.0603 5.7051 1.9196 6.307 1.3879 0.97045 3.1204 0.98189 3.9434-0.0356 0.80894-0.97471 0.4309-6.375-0.77153-11.016-0.46021-1.7756-0.76621-3.4386-0.67969-3.6984 0.0856-0.26009 2.1829 2.1132 4.6598 5.2751 2.9713 3.7933 4.5095 6.2023 4.522 7.0845 0 0.73554 0.34844 1.9161 0.75316 2.624 1.1647 2.0373 0.68915 13.976-0.75008 18.795-0.25375 0.8495-0.72881 3.3984-1.0532 5.664-0.32418 2.2654-0.71179 4.8721-0.86338 5.7925l-0.27554 1.6716h15.446l0.35209-7.8531c0.19267-4.3184 0.39945-9.3555 0.46231-11.196l0.1163-3.3464 2.2932-1.1328c3.0651-1.51 8.5086-2.7299 12.179-2.731 3.3119 0 6.4893-1.2644 6.7539-2.6848 0.13811-0.74412-2.3941-7.9494-5.2078-14.821-0.40518-0.99113-1.0054-4.8487-1.3349-8.5726-0.77937-8.8094-2.1288-15.759-4.5955-23.675-0.47581-1.527-0.35114-1.7626 2.2993-4.3751 1.9419-1.9138 2.7275-3.0572 2.5564-3.7199-0.13622-0.5261-0.0333-1.5255 0.23266-2.2226 0.65776-1.7303 0.13214-3.473-1.8156-6.0254-2.2328-2.9252-2.799-4.7384-3.6525-11.649-0.40241-3.2566-1.0773-8.1206-1.5002-10.811-1.1054-7.0314-1.0988-7.083 0.88786-5.0579 0.9226 0.94052 2.1203 1.9543 2.6606 2.2534 0.86639 0.47989 0.91238 0.74584 0.38271 2.2657-0.63498 1.8213-0.81439 7.1054-0.28782 8.4776 0.17129 0.44789 0.84655 0.81433 1.5002 0.81433 0.77217 0 1.9411 0.85682 3.3402 2.4461 2.0445 2.3225 2.2865 2.4463 4.8067 2.4463 2.016 0 3.0598-0.30512 4.3383-1.2645l1.6839-1.2612 3.2055 3.086c12.638 12.165 26.034 22.535 33.268 25.751 5.6177 2.4993 9.9029 1.1407 10.042-3.184l0.0612-1.8859-3.8607-1.139c-9.0658-2.6702-16.869-7.8638-32.854-21.875l-7.3081-6.408v-2.6084c0-3.2644-0.65701-5.5914-2.2442-7.9603-1.5502-2.3134-2.316-7.7976-2.8596-20.458l-0.39492-9.1941 1.2185-1.1449c1.3036-1.2268 1.2943-1.6152-0.15921-6.3222-0.7276-2.3573-0.41494-5.1282 0.57867-5.1282 0.51627 0 4.1871 5.7239 7.7183 12.038 1.038 1.8561 2.3272 3.899 2.8657 4.5402 1.4326 1.7059 2.1294 0.39871 1.7114-3.2116-0.81926-7.0744-3.5189-12.886-12.038-25.932-4.6145-7.0669-5.4201-8.6309-5.9855-11.585-0.47373-2.4755-0.50857-3.9714-0.12556-5.4344 0.59333-2.2532 0.12195-8.9303-0.70417-9.9502-0.28646-0.3537-0.91958-0.64596-1.4053-0.64596-0.73305 0-0.99825-0.89621-1.5614-5.2753-0.90391-7.0272-2.6619-13.724-4.3689-16.637-1.5482-2.6418-3.9062-4.4736-10.33-8.0367-8.3292-4.6197-12.585-9.7163-10.263-12.283 0.74863-0.82737 0.77267-1.2849 0.21127-3.7934-0.60482-2.7034-0.56414-3.0159 0.76846-5.9855 1.2022-2.6788 1.326-3.3655 0.84807-4.7363-0.4363-1.2518-0.39724-1.8476 0.17453-2.7187 1.0209-1.5586 0.74628-9.7495-0.40108-11.968-0.46237-0.89432-0.83889-1.9329-0.83889-2.3085s-0.94945-1.6058-2.1094-2.7309c-1.16-1.1252-2.6366-2.5652-3.279-3.2025-0.64256-0.63713-1.6694-1.1603-2.284-1.1603-0.61474 0-1.6585-0.35311-2.3207-0.78686-0.62506-0.40937-1.9218-0.55572-3.132-0.48344zm744.19 2.2411c0.8271 1.2839 5.1041 24.706 5.1925 28.436 0 0.17892-1.092 0.60182-2.437 0.93993-1.345 0.33829-3.567 1.1779-4.9354 1.8645-1.3684 0.68607-2.582 1.2492-2.7004 1.2492s-0.2174-2.8562-0.2174-6.3468v-3e-3c0-8.736 0.8975-16.863 2.3666-21.456 1.5192-4.7493 2.0748-5.7032 2.731-4.6843zm-1006.7 2.333v3e-3c-2.6495 0.49709-4.8558 2.6325-6.7049 6.4906-3.9093 8.1576-5.7718 9.5718-11.98 9.1022-3.7293-0.28202-3.7557-0.27431-4.1209 1.093-1.6946 6.3445 1.6524 10.382 8.6062 10.385h3.3464l0.0797 2.587c0.0426 1.423 0.44749 3.1548 0.90012 3.8455 0.77139 1.1772 0.76028 1.2895-0.20511 1.8063-1.217 0.65117-1.3477 2.1866-0.26026 3.0892 0.42479 0.35251 0.75942 1.018 0.74091 1.4788-0.0661 1.672-4.9606 10.185-8.0765 14.05-2.4984 3.0992-2.2097 5.1006 1.2614 8.7347l1.7849 1.8676-0.29393 4.0537c-0.16149 2.2294-0.50684 8.689-0.76233 14.353-0.25554 5.6635-0.73875 11.707-1.0746 13.431-0.57871 2.97-0.72703 3.1928-2.8075 4.2035-3.2482 1.5781-3.9028 3.3566-3.876 10.501 0.0196 4.6219-0.19965 6.4616-1.0318 8.793-0.61961 1.7354-1.0532 4.229-1.0532 6.0652 0 1.7152-0.35777 3.9781-0.796 5.0271-0.4793 1.1471-0.68216 2.6291-0.5113 3.7168 0.15566 0.99493-0.0243 2.9652-0.39802 4.3812l-0.67661 2.5748h-21.526l-0.61539-3.6618c-0.99556-5.9458-3.6018-10.08-7.5714-12.001-2.8423-1.3768-6.9212-1.3962-9.5247-0.0829-1.7679 0.90197-6.2641 5.2215-6.2641 6.019 0 0.92376 2.2493 3.8055 2.9698 3.8055 0.45442 0 1.3622-0.50182 2.0176-1.1175l1.191-1.1204v1.1451c0 0.62983 0.37727 1.8752 0.83888 2.7676 0.4616 0.89259 1.1356 3.0238 1.4971 4.7363 0.36158 1.7129 0.83511 3.8103 1.0501 4.6597 0.35028 1.3846 0.3024 1.4716-0.44699 0.85433-0.7173-0.59068-1.0236-0.50122-2.1554 0.63061-0.72546 0.72547-1.4605 2.033-1.6349 2.9055-0.24071 1.2039-0.51781 1.5041-1.1481 1.243-1.9752-0.81778-2.5994-0.77766-3.6158 0.23877-3.5076 3.5078 2.3012 8.8022 9.6594 8.8022 1.9242 0 2.1819 0.19254 4.3996 3.3004 3.1406 4.4012 5.8703 6.6437 10.364 8.5144 2.053 0.8548 5.5789 2.8649 7.8347 4.4669l4.0995 2.9116-0.72255 1.4542c-0.83464 1.6728-0.272 3.2803 1.3257 3.7874 0.59392 0.18841 1.3876 1.4601 2.0574 3.2973 0.76945 2.1103 1.4759 3.1688 2.4034 3.5912 1.9007 0.86594 2.5454 0.75576 4.3169-0.73482 1.8002-1.5149 1.9646-2.7755 0.74704-5.6824-0.45927-1.0964-0.80822-3.1393-0.77765-4.5372 0.0701-3.1823-0.90964-4.4087-3.5147-4.4087-1.7436 0-2.4327-0.56638-9.5737-7.8561-4.2325-4.3206-8.7765-9.2982-10.097-11.062l-2.4003-3.2055 2.2288-5.6792 6.1783 0.0675c3.3983 0.0356 8.7242 0.20678 11.836 0.38274 5.1211 0.2903 5.6753 0.41828 5.8446 1.3502 0.10315 0.56639 0.52172 1.4061 0.92768 1.8646 1.4361 1.6224 1.9202 9.3777 1.3349 21.385-0.33771 6.9252-0.37687 12.927-0.0948 15.623 0.58629 5.6336 2.2769 12.23 3.5943 14.025 0.56822 0.77434 1.1526 2.511 1.3012 3.8607 0.53516 4.8575 1.8026 7.5694 4.8741 10.434l1.9319 1.8031 0.36128 9.1177 0.36129 9.1175-1.2981 0.32466c-2.6539 0.66622-2.8004 1.3072-2.3972 10.302 0.20393 4.5468 0.63518 8.7652 0.96135 9.3745 0.50359 0.941 0.43195 1.1937-0.48985 1.687-0.88087 0.47159-1.0278 0.89479-0.7746 2.2442 0.28628 1.5263 0.0889 1.8451-2.3972 3.8883-3.3825 2.7788-5.9735 3.9301-9.8798 4.3934-1.679 0.199-3.5792 0.7055-4.222 1.1267-2.2926 1.5022-2.8733 6.9905-0.79909 7.5468 0.47674 0.1285 7.9324 0.1985 16.569 0.1594l15.703-0.074 0.92462-2.832h3e-3c0.50885-1.5575 1.0664-4.4081 1.2369-6.3344 0.27266-3.0779 0.17224-3.6885-0.81439-5.0242-0.86674-1.1725-1.0035-1.7417-0.60006-2.4952 0.35582-0.6651 0.34883-1.4718-0.0214-2.5289-0.41397-1.1871-0.36616-1.8971 0.199-3.0127 0.4063-0.80225 0.8967-2.9064 1.0899-4.675 0.19266-1.7685 0.68831-4.0194 1.0991-5.0027 0.41097-0.98331 0.74695-2.664 0.75009-3.7352 0-1.5719-0.31477-2.2101-1.6563-3.3127l-1.6625-1.3655 0.89706-7.1305c0.49329-3.9212 1.0426-9.0985 1.2185-11.505 0.29286-4.0096 0.44316-4.4847 1.8186-5.664 1.772-1.5194 2.6928-4.8769 2.1798-7.9603-0.35374-2.1257-1.911-5.6504-2.7156-6.1477-0.24616-0.1522 2.9e-4 -1.6146 0.56639-3.2513 1.131-3.3213 1.0266-7.6773-0.33676-14.304-0.40768-1.9823-0.86934-4.6469-1.0256-5.9212-0.46976-3.8296 1.9086 3.8022 4.8833 15.672 3.3763 13.472 4.3604 16.414 6.0988 18.275 1.0588 1.1334 1.5048 2.2248 1.6869 4.1209 0.33646 3.5007 2.3887 6.5248 5.3088 7.8163 1.9417 0.85882 2.3073 1.268 2.5962 2.9147 0.18485 1.0536 1.1065 4.9281 2.0482 8.6093 0.94166 3.6812 1.7856 7.8515 1.8737 9.2675 0.14593 2.3427 0.0522 2.5896-1.0134 2.74-0.64414 0.0906-1.5049 0.67749-1.9135 1.3012-0.65405 0.99806-0.6268 1.6964 0.21737 5.817 0.52776 2.5757 1.2624 5.232 1.6349 5.9059 0.37266 0.67387 0.85347 2.849 1.0685 4.8311 0.99286 9.1547 1.3244 10.954 2.3911 13l1.142 2.1891h6.9099c3.8005 0 7.0145-0.1736 7.1428-0.3857 0.12838-0.2121 0.0196-2.5879-0.24801-5.2782-0.64354-6.5395-1.5496-19.992-1.6471-24.441-0.0759-3.4994-0.116-3.6002-1.6227-4.1117-0.84961-0.28853-1.7175-0.76024-1.9257-1.0471-0.20802-0.28675-0.38107-3.8138-0.38574-7.8377 0-4.1634-0.36259-9.563-0.83276-12.531l-0.82663-5.2171 1.6625-2.3144 1.6624-2.3147-1.8982-5.7742-1.9013-5.7711 0.87868-2.2932c1.7631-4.6114 1.5577-6.7729-1.3287-14.132-2.8159-7.1797-7.3858-19.38-7.9327-21.177-0.32929-1.0821-0.30139-1.0785 2.1278 0.16826 1.9119 0.98923 2.9503 1.1962 4.6536 0.97358 4.0954-0.53498 6.1332-2.7834 8.5082-9.3623 1.7728-4.9143 2.1692-7.9188 1.3624-10.339-0.361-1.0832-0.68036-3.0118-0.71031-4.2862-0.0367-1.5591-0.49489-2.9923-1.3992-4.3782-1.0063-1.5422-1.4246-3.0058-1.6655-5.8263-0.29968-3.5102-0.73881-4.7275-3.2606-9.044-0.34914-0.5988-0.63823-1.4529-0.64293-1.8952-0.0196-1.1357-1.8624-2.9846-3.3647-3.3616-1.3892-0.34837-4.5307-5.0146-5.168-7.6755-0.49117-2.0502-1.1841-2.8528-3.178-3.6863-0.91365-0.38213-2.0172-1.3811-2.4524-2.2228-1.0189-1.9702-2.59-8.7732-3.4014-14.726l-0.63683-4.6721 1.7604-2.4645c3.4783-4.8718 4.5719-6.7822 5.961-10.416l1.4083-3.6892 1.8278 0.92156c4.7617 2.4034 11.174 3.2861 13.26 1.8248 1.6597-1.1625 2.39-3.9894 1.9778-7.654-0.38179-3.394-1.51-8.6704-2.036-9.5216-0.19693-0.31814-1.4428 0.0657-3.1963 0.98882-5.0866 2.6758-10.492 1.6089-10.492-2.0728 0-1.4342 0.0273-1.4478 2.1094-0.97969 6.1137 1.3736 12.63-3.1644 10.489-7.305-0.43124-0.83359-0.91934-1.5155-1.0869-1.5155-0.16736 0-1.1721 0.89177-2.2319 1.9839-2.1287 2.1941-3.8006 2.7327-6.5641 2.1094-1.9349-0.43664-2.697-1.1895-2.7095-2.6789 0-0.70146 0.42515-0.90012 1.9503-0.90012 2.3072 0 7.0964-2.2438 7.8684-3.686 0.56046-1.047 0.20149-3.8254-0.55419-4.2924-0.23741-0.1475-1.1385 0.32941-2.0023 1.0562-2.0501 1.7248-4.2503 2.3275-6.359 1.7452-1.3838-0.38214-1.8349-0.88941-2.5412-2.8534-0.47267-1.3142-0.60154-2.1294-0.28473-1.8125 0.31685 0.31695 1.8236 0.57526 3.3464 0.57526 2.3992 0 2.9754-0.21091 4.3352-1.5705 2.3311-2.3334 1.9004-4.2432-3.4106-15.1-4.8006-9.8134-7.6198-13.707-9.9227-13.707-1.32 0-4.8741 2.2051-6.5427 4.0597-1.3096 1.4549-2.1821 1.3715-2.5871-0.24172-0.52036-2.0728-2.8426-5.2634-4.6353-6.3712-1.9892-1.2294-5.288-1.8062-7.7183-1.3502zm411.33 6.4814c-0.73987 0.2814-2.0358 0.51128-2.881 0.51128-2.1231 0-4.5262 1.3452-5.1006 2.8565-0.31429 0.82654-0.8833 1.2644-1.6502 1.2675-1.9409 6e-3 -6.2671 2.3092-7.8408 4.1699-1.5932 1.8837-4.8481 8.5196-5.3854 10.979-0.30767 1.4079-0.59759 1.5682-4.2434 2.3452-6.1081 1.3017-8.2809 3.4345-6.411 6.2885 1.1512 1.7571 10.097 8.0865 11.475 8.1195 0.62349 0.0177 0.87696 0.61568 1.439 3.4199 0.30785 1.5364 2.9914 4.8343 3.9342 4.8343 1.3303 0 2.5136 2.1618 2.5136 4.5955 0 2.9048-0.89934 4.1607-2.9973 4.1607-0.76555 0-2.33 0.75384-3.5178 1.6746-1.1767 0.91767-2.8536 2.0609-3.726 2.5412-4.0757 2.2434-8.2939 12.221-8.2939 19.622 0 2.3234-0.23735 5.036-0.52966 6.0253-0.29209 0.98927-0.76844 3.6527-1.0563 5.9181-0.45792 3.6016-1.6638 7.9708-4.4485 16.104-0.4149 1.2121-2.2047 4.2233-3.974 6.6927-4.8408 6.7558-4.8356 6.742-3.0616 8.3185 0.81713 0.72642 2.1426 1.7952 2.9453 2.3758l1.4604 1.0562-1.0563 7.697c-1.0246 7.4563-1.858 14.999-2.2962 20.816-0.11678 1.5511 6.6e-4 3.3079 0.28165 3.9035 0.69357 1.5221 4.446 3.8301 6.2243 3.8301h1.488l-0.34292 2.7034c-0.70543 5.5247-2.3712 12.987-3.1259 14.007-0.42871 0.57883-1.3393 1.8235-2.0237 2.7647-1.7247 2.3718-2.1214 5.5838-1.0777 8.7256 1.1045 3.3254 4.8422 6.8121 7.305 6.8121 1.0275 0 1.0843 0.1576 0.67663 1.9318-0.24422 1.0619-1.241 4.2568-2.2136 7.0999-2.5107 7.3393-3.8195 14.217-4.4547 23.406-1.1902 17.218-1.6032 19.991-3.8699 26.002-0.74765 1.9821-1.5615 4.8445-1.8094 6.3621-0.56551 3.46-2.9429 7.2289-5.3885 8.5418-2.4572 1.3194-4.294 3.8077-3.282 4.4485 1.0641 0.673 19.884 0.6068 20.305-0.083h3e-3c0.18875-0.3039-0.15967-1.0885-0.7746-1.742-1.0748-1.144-1.095-1.3594-0.51738-5.7558 0.32981-2.5113 0.65741-7.345 0.7256-10.743 0.1381-6.9278 1.3271-12.608 4.8557-23.17 1.1353-3.3981 2.7649-9.0427 3.6188-12.543 0.85391-3.5008 2.5825-9.0612 3.8423-12.357 1.2598-3.2956 2.3858-6.3279 2.5013-6.7386 0.15565-0.551 1.1022-0.75711 3.6096-0.78376 2.3474-0.0237 3.69-0.2915 4.3414-0.86338 0.51857-0.45562 1.6929-1.208 2.6085-1.6717 2.492-1.2622 3.2827-3.2051 2.8902-7.0998-0.19676-1.9516-0.73607-3.8324-1.3471-4.7058-0.97338-1.3912-0.99224-1.787-0.4133-9.0103 1.1372-14.185 1.9761-19.716 3.0892-20.403 0.54701-0.33829 0.84874 1.305 1.7941 9.7574 1.3805 12.347 1.5271 17.238 0.61234 20.32-1.2314 4.1466-1.0628 7.0882 0.59085 10.351 1.1489 2.267 1.7555 2.8926 3.2178 3.3157 0.99129 0.28675 2.2865 0.79614 2.8779 1.1328 0.59138 0.33059 1.559 0.48583 2.1523 0.33059 0.59353-0.15519 1.8901-0.0177 2.881 0.31223 2.0982 0.69253 1.9808 0.31104 3.4198 11.043 1.2024 8.9681 1.4282 9.9038 4.3689 18.07 3.625 10.066 6.2637 20.674 7.7398 31.112 1.1001 7.7802 1.0493 8.3651-0.82664 9.4329-1.0072 0.5735-1.5163 1.2274-1.4053 1.8033 0.1596 0.8295 1.1234 0.9001 11.75 0.9001 11.461 0 11.579-0.018 11.735-1.1083 0.0914-0.6422-0.25139-1.3987-0.81746-1.8002-0.53766-0.3815-1.2538-1.2151-1.592-1.8523-0.33806-0.6372-0.92798-1.1573-1.3104-1.1573-1.519 0-4.5962-4.1263-7.4918-10.042-5.232-10.689-5.9568-13.91-7.2407-32.178-0.60093-8.5492-1.5957-15.082-2.8228-18.559-0.41856-1.1868-0.98675-3.5684-1.2644-5.2936-0.4672-2.9006-0.42076-3.2279 0.63376-4.3504 0.6272-0.66776 2.224-1.805 3.5484-2.526 1.9989-1.0879 2.642-1.8282 3.778-4.3597 1.0244-2.2839 1.2783-3.463 1.0104-4.7026-0.48031-2.2221-2.6144-6.3912-3.5362-6.9071-1.433-0.80196-3.3783-5.9181-3.3862-8.9094 0-1.5575-0.31828-3.4233-0.69499-4.1454-0.37674-0.72198-0.83314-2.7482-1.0165-4.5036-0.21773-2.0831-0.77325-3.8613-1.5982-5.1221-0.6951-1.0626-1.4268-2.601-1.6257-3.4168-0.34428-1.413-0.26105-1.3747 1.7482 0.80527 1.1602 1.2586 4.5704 4.7078 7.5775 7.6631 8.9356 8.7822 11.366 13.543 10.109 19.796-0.31915 1.5897-1.1651 4.0538-1.8798 5.4773-0.71496 1.4232-1.193 2.7614-1.0624 2.9728 0.34035 0.5504 5.3684-0.40641 7.4642-1.4206 1.324-0.64063 2.2762-1.7954 3.7505-4.5465 1.7168-3.2034 2.0763-4.4864 2.7309-9.7634 1.8716-15.088 1.012-17.147-10.55-25.31-11.469-8.0978-17.562-15.142-22.971-26.559-1.256-2.6517-2.284-4.9671-2.284-5.1466 0-0.18009 0.50709-0.32761 1.1267-0.32761 1.5128 0 4.1105-1.8411 5.5385-3.925l1.1634-1.6992-2.3881-3.5913c-3.2782-4.9312-6.3104-11.581-7.5928-16.652-2.337-9.2418 0.30683-20.375 6.411-26.997 1.1738-1.2736 4.2202-3.7444 6.7692-5.4895 5.2318-3.5815 10.065-7.8667 12.228-10.844 1.0857-1.494 1.4604-2.5965 1.4604-4.3107 0-2.0083-0.51367-3.0811-3.9923-8.3704-2.1947-3.337-4.6858-7.1863-5.5354-8.5541-1.5181-2.4457-1.5911-2.489-4.2526-2.5412-1.694-0.0356-2.9204 0.20441-3.279 0.63677-0.86926 1.0474-1.6334 0.8525-4.1332-1.0562-2.3873-1.8228-3.332-3.5383-4.8588-8.8083-2.5987-8.9706-7.9185-15.117-11.803-13.64zm-293.04 1.6165c-4.6679 1.1097-9.2864 4.9553-12.148 11.129-1.7615 3.7999-1.996 6.7207-1.0991 13.765 0.39524 3.1039 0.60965 3.6265 1.5492 3.7598 0.91131 0.13042 1.1469 0.63078 1.4267 3.0064 0.18484 1.567 0.67975 3.5121 1.0991 4.3231 0.41934 0.81109 0.76234 2.2742 0.76234 3.2514 0 1.4638-0.29854 1.9522-1.6961 2.7769-3.0496 1.7994-15.195 16.386-17.718 21.278-1.2742 2.4719-1.4359 3.3279-1.4084 7.4275 0.0273 4.0833 0.26543 5.2482 1.9962 9.7849 1.0804 2.8318 2.9793 7.414 4.222 10.186 1.77 3.9476 2.1482 5.2516 1.739 6.0161-0.74007 1.383-0.6437 3.117 0.27247 4.8742 0.7243 1.3892 0.70528 1.7297-0.22045 4.1209-0.55477 1.433-1.1481 3.9954-1.3196 5.6946-0.51042 5.0572-1.1351 8.6458-1.8217 10.458-0.40802 1.0779-0.50525 2.4053-0.26021 3.6035 0.21371 1.0437 0.43363 4.3315 0.48677 7.305 0.10314 5.7206 0.4953 9.8702 2.3942 25.231 1.2026 9.7276 1.4153 16.722 0.97358 32.178-0.17122 5.9985 0.0313 10.672 0.74398 17.188 0.8934 8.1688 0.92358 9.9618 0.34292 20.593-0.34991 6.4055-0.99631 13.916-1.4359 16.689-0.73374 4.6284-0.73125 5.1171 0.0367 5.9672 0.77509 0.85652 0.76339 1.29-0.15921 5.7711-0.54877 2.6647-1.2673 5.54-1.5982 6.3897-0.331 0.8495-0.9116 2.7049-1.2889 4.1209-0.37752 1.4158-0.84031 2.9706-1.0287 3.4566-0.30937 0.7977 0.22621 0.9011 5.4987 1.0501 3.2124 0.091 5.957 0.2097 6.0987 0.2666 0.14202 0.059 0.51201-0.067 0.82357-0.2755 1.1516-0.7689 1.7512-2.7065 1.7512-5.667 0-1.6724 0.46243-4.8518 1.0287-7.0662 0.56649-2.2145 1.0317-4.9249 1.0317-6.0222 0-1.0975 0.36999-2.5622 0.82358-3.2546 0.56634-0.86405 0.74518-1.9478 0.56948-3.4566-1.2571-10.788-1.4898-14.376-1.5461-23.822-0.0527-8.6966 0.16423-12.426 1.096-19.052 0.98121-6.9665 1.109-9.5081 0.83888-16.475-0.26328-6.787-0.0438-11.458 1.243-26.517 1.4153-16.567 2.974-30.885 3.4076-31.317 0.2259-0.22633 0.34255 0.19373 3.3678 12.011 5.6188 21.951 9.7005 35.082 13.119 42.21 0.95275 1.9863 2.8807 6.8552 4.2832 10.82 1.4025 3.9645 3.8424 10.716 5.4221 15.002 3.5709 9.6885 5.1234 15.021 6.1998 21.297 0.98953 5.7704 2.0148 16.824 1.6196 17.463-0.15174 0.24587 0.0702 1.4285 0.49293 2.6269 0.42283 1.1985 0.76846 3.095 0.76846 4.2158 0 1.1209 0.66684 3.7048 1.4818 5.7405 0.81519 2.0357 1.8876 5.3745 2.385 7.4215 0.49759 2.0467 1.048 3.7316 1.2216 3.7474 3.0735 0.2304 15.557 0.097 15.822-0.1683 0.19949-0.2003 1.4e-4 -0.7725-0.45618-1.2707-0.45087-0.4982-1.3805-2.1108-2.0635-3.5851-0.68304-1.4741-1.4815-2.9808-1.7757-3.3464-0.29423-0.3655-1.3948-2.678-2.4462-5.1405-1.8014-4.2138-1.864-4.5466-1.0899-5.6516 1.094-1.5622 1.0357-3.1374-0.2082-5.5753-0.56626-1.1102-1.0287-2.6075-1.0287-3.3279 0-1.4003-1.8567-8.7113-3.5882-14.129-1.0534-3.2957-3.2101-13.465-3.8852-18.327-1.8931-13.636-3.2994-18.672-7.703-27.545-3.5532-7.1646-3.7406-7.9844-7.7643-33.981-0.46022-2.9735-0.90858-7.5189-0.99807-10.1-0.0953-2.7714-0.46983-5.3016-0.91238-6.1785-0.41217-0.81132-0.89618-3.293-1.0746-5.5016-0.17902-2.2087-0.61015-4.5235-0.95828-5.1466-0.34812-0.62315-0.7864-2.9882-0.97361-5.2538-0.18681-2.2654-0.50826-4.8499-0.71334-5.7435-0.35417-1.5434-0.25962-1.6737 1.8706-2.6147 1.407-0.62108 2.953-0.90949 4.1485-0.76843 2.5035 0.29387 4.3307-1.5583 4.8312-4.8956 0.27616-1.8418 1.0701-3.2296 3.726-6.515 7.9498-9.8348 10.876-15.601 10.168-20.048-0.41543-2.6089-2.2936-6.0286-7.3571-13.404l-3.8362-5.5874 1.3318-1.3901c2.2807-2.3805 1.8291-3.0679-2.1248-3.2422-3.2054-0.14108-3.4762-0.24469-3.7566-1.439-0.1654-0.70794-0.63817-1.2859-1.0501-1.2859-1.1651 0-1.1926 2.1736-0.0492 4.1087l1.0318 1.7512-1.1236-0.40998c-1.7903-0.65822-2.2399-2.7186-1.1297-5.1803 0.93333-2.0714 0.93376-2.1312-0.16535-4.3322-0.6229-1.2472-1.1204-3.2279-1.1267-4.4914-0.0196-2.7195-0.71448-5.9877-2.0238-9.4665-1.1302-3.0031-2.3451-8.5948-3.132-14.417-0.79006-5.8444-1.8621-9.2923-3.8515-12.403-3.0501-4.768-7.7654-6.3941-12.433-5.2843zm1163.4 0.78068c0.41 0.14579 0.8098 0.79527 1.39 2.0176 0.8305 1.7504 0.8206 1.8388-0.3336 3.0678-1.4604 1.5545-1.7664 1.5711-2.7798 0.12258-1.0762-1.5362-1.0097-2.5716 0.2695-4.1974 0.6254-0.79501 1.0442-1.1558 1.4542-1.0103zm-577.44 2.7402c0.1108 0 0.3359 0.34658 0.4989 0.7715 0.1635 0.42479 0.072 0.77157-0.202 0.77157-0.2744 0-0.4989-0.3466-0.4989-0.77157 0-0.42478 0.091-0.7715 0.202-0.7715zm263.27 7.3295 0.3365 4.8067c0.2873 4.0897 0.1931 9.4475-0.3887 21.811-0.1125 2.3916-0.5782 2.918-1.8645 2.1065-0.5682-0.35844-0.7629-1.4121-0.741-3.9831 0.048-5.169 0.6418-13.986 0.9859-14.543 0.1653-0.2666-0.1706-1.8776-0.744-3.5821-1.3779-4.0901-1.3406-4.4012 0.6858-5.5966zm243.89 1.9472c2.03 5e-3 10.393 13.653 17.512 28.574 4.9814 10.44 4.7614 9.3283 2.7309 13.719-0.9631 2.0825-2.9487 5.9597-4.4149 8.6154-1.4661 2.6559-2.6665 5.2061-2.6667 5.6701 2e-4 0.69537 4.8729 4.173 5.8478 4.173 0.1551 0 0.8526 0.57112 1.5492 1.2675 0.6965 0.69644 1.9244 1.4263 2.7278 1.6228 0.803 0.19609 2.6194 0.88768 4.0354 1.5368 3.4592 1.5859 10.484 3.8118 12.032 3.8118 0.6876 0 2.4322 0.55988 3.8761 1.2429 2.6299 1.2443 6.3335 2.3318 11.637 3.4168 1.5573 0.31875 3.7568 0.81825 4.8895 1.1114 7.6802 1.9872 29.3 3.3611 35.169 2.235 2.1565-0.41412 2.2081-0.39161 1.9258 0.80527-0.4965 2.1014 0.3282 2.7078 3.1412 2.3084 1.3744-0.19491 3.7729-0.49292 5.3302-0.66137 1.5576-0.16884 3.2977-0.61087 3.8639-0.97975 0.5663-0.36849 2.8454-0.8949 5.0669-1.1695 2.9444-0.36376 4.3577-0.7966 5.214-1.6011 1.287-1.209 5.6308-2.0462 10.716-2.0635 3.6631-0.0177 8.0918-1.9988 8.0918-3.6281 0-0.88158 0.1411-0.93692 0.9891-0.40703 1.1281 0.70462 2.7963-0.23639 7.7641-4.3689 1.5577-1.2956 5.4668-4.449 8.6858-7.008 8.1987-6.5181 15.264-12.715 22.319-19.576 3.329-3.2373 6.1793-5.7579 6.3345-5.6027 0.1552 0.15518 0.083 1.5589-0.1624 3.1168-0.497 3.1694-1.998 5.8792-5.7803 10.434-1.4108 1.6991-2.7923 3.6143-3.0709 4.2587-0.2783 0.64413-1.2816 1.63-2.2289 2.189-0.9476 0.55868-2.0156 1.5362-2.3726 2.1738-0.3566 0.63756-1.7456 2.088-3.0862 3.2207-1.3407 1.1329-4.6207 3.9802-7.2897 6.3285-5.1914 4.5674-8.9025 7.2687-16.845 12.256-4.244 2.6648-5.0254 3.3614-5.168 4.6323-0.094 0.82298-0.3816 1.7181-0.643 1.987-0.2612 0.26898-0.4744 0.83862-0.4744 1.2551 0 0.77327 2.5241 5.2655 6.3589 11.316 1.6441 2.5937 2.1231 3.8902 2.29 6.1967 0.1889 2.6097-0.1112 3.7246-2.8472 10.621-1.6823 4.2386-3.3495 9.2015-3.7047 11.028-0.3804 1.959-1.2453 4.1937-2.1094 5.4496-0.8057 1.1711-2.1017 4.3115-2.8779 6.9774-1.6112 5.5338-2.0506 6.2136-3.6218 5.6058-3.9657-1.534-5.9982-10.242-8.1685-34.997-1.336-15.24-1.4073-15.553-3.4779-15.345-1.4001 0.14093-1.6154 0.41294-2.189 2.731-0.8655 3.4981-1.6319 10.552-2.3484 21.624-0.5113 7.8983-0.8196 9.9018-2.0819 13.557-0.8148 2.3586-1.4818 4.743-1.4818 5.2997 0 0.551-0.7144 3.4925-1.589 6.5243-0.8746 3.0316-1.7446 6.072-1.9318 6.7569-0.3698 1.3502-0.7793 1.5514-2.4891 1.2247-1.81-0.34718-2.1118-1.177-2.3115-6.3314-0.1349-3.4467-0.477-5.4785-1.1635-6.8764-0.9317-1.895-0.9203-2.1913-0.1571-6.6162 0.9584-5.4074 0.6084-6.7781-1.9533-7.6235-2.7962-0.92281-3.1999-1.7978-3.4473-7.4612-0.1576-3.591-0.5178-5.7259-1.1726-7.0601-0.8347-1.6864-0.8691-2.1753-0.2878-4.1148 0.362-1.21 1.2053-2.8467 1.8706-3.6372 0.6651-0.79053 1.3653-2.2775 1.5584-3.3066 0.6506-3.4681 0.6554-3.4669-12.464-3.8422-6.4831-0.18545-13.177-0.56579-14.876-0.84509-4.3035-0.7084-11.713-2.4338-15.079-3.5148-1.2133-0.38984-3.2126-0.71024-4.4424-0.71024-1.3593 0-2.4852-0.30215-2.8747-0.77156-0.3526-0.42479-0.9022-0.77452-1.2216-0.77452-0.3195 0-1.2301-0.34066-2.0206-0.75319-0.7909-0.41235-2.2967-0.91031-3.3464-1.1053-2.2401-0.41591-6.2115-2.0449-7.3143-3.0004-0.4247-0.36792-3.6703-2.1056-7.2101-3.8606-3.5399-1.7548-7.0135-3.4835-7.7213-3.8423-0.7081-0.35903-3.6314-2.0941-6.4969-3.8546-4.0493-2.4882-5.4961-3.1284-6.4935-2.8779-0.72 0.18071-2.5857 1.8869-4.2528 3.8881-1.6339 1.9616-3.2669 3.5668-3.6277 3.5668-0.8227 0-2.079-2.1577-7.645-13.128-6.0445-11.913-7.1614-13.82-10.7-18.253-2.2687-2.8423-2.9897-4.1261-2.783-4.9506 0.1536-0.61214 0.4917-2.6222 0.7532-4.4669 0.4721-3.3328 3.02-8.3241 5.9824-11.717 0.618-0.70804 2.4608-3.3726 4.0932-5.9213 4.2214-6.5884 11.084-15.701 11.827-15.703zm-191.04 4.77c0.1731-0.17419 0.3182 0.17713 0.3182 0.78067 0 0.60379 0.6747 1.7887 1.5002 2.633 1.2618 1.2909 1.5492 2.0936 1.8125 5.0394 0.1729 1.9264 0.404 4.3857 0.5142 5.465 0.2394 2.3391 1.4871 1.6992-12.837 6.5886-5.947 2.03-11.131 3.8099-11.518 3.9557-0.5332 0.20027-0.6066-0.0356-0.3092-0.97358 1.1653-3.6746 4.7539-7.3327 10.636-10.844l3.4412-2.0542 1.589 1.1725 1.5891 1.1756 1.4051-1.4052c1.32-1.3198 1.4072-1.698 1.4727-6.31 0.041-2.6987 0.2121-5.0491 0.3857-5.223zm190.58 2.9514c-1.4238 3e-3 -10.911 13.813-15.559 22.653-1.442 2.742-0.053 7.9336 2.6789 10.018 2.4371 1.8588 3.6436 1.5898 3.4228-0.76231-0.6059-6.4581-0.5967-6.4926 3.6923-14.148 2.2213-3.9646 4.2314-7.4124 4.47-7.6633 0.6464-0.67967 1.4825 0.37918 5.2415 6.6347 4.394 7.3123 7.0998 12.524 7.0998 13.676 0 0.50298-1.4125 3.6869-3.1412 7.0753-2.1815 4.2764-3.0399 6.4834-2.8075 7.2164 0.3324 1.0474 3.0594 3.0597 4.2588 3.1412 0.3435 0.0237 1.5244-1.2896 2.6268-2.9178 1.1024-1.6282 3.2168-5.2446 4.6965-8.0366 2.0669-3.9001 2.6123-5.3913 2.3575-6.4356-0.9268-3.7971-17.595-30.451-19.037-30.451zm-1516.4 3e-3c0.43394 0 1.3227 0.94889 1.9747 2.1094 1.1413 2.0308 3.1648 3.5546 4.721 3.5546 1.3698 0 0.058 4.0441-6.0558 18.639-2.71 6.4696-3.8788 12.349-3.8913 19.591l-0.0214 6.0498h-11.141l-0.55413-6.3069c-0.30945-3.469-0.93594-7.5148-1.3931-8.9889-1.122-3.6208-3.6646-6.833-6.6406-8.3889-2.2825-1.193-2.44-1.4001-2.1493-2.8319 0.17317-0.84965 0.44434-3.0946 0.60313-4.9905 0.20607-2.4628 0.56611-3.6997 1.2614-4.3291 0.53534-0.48464 0.9736-1.0877 0.9736-1.341 0-0.25356 0.75137-1.2228 1.6716-2.1554 1.255-1.2718 2.5753-1.9181 5.2782-2.5839 4.5877-1.1305 9.4506-3.5157 12.326-6.0468 1.2373-1.0891 2.603-1.9809 3.0371-1.9809zm146.35 0c0.30669 0 1.3217 0.95251 2.2564 2.1156 1.9616 2.441 8.4893 6.8708 11.411 7.7459 1.1279 0.33831 1.9962 0.92441 1.9962 1.3472 1e-5 0.41116 0.92314 1.8544 2.0544 3.2054 2.5763 3.0769 3.0062 6.5023 1.142 9.1206-0.62564 0.87833-1.1389 1.9337-1.1389 2.3451 0 0.53025-0.86279 0.83988-2.9606 1.0686-4.1926 0.45679-6.6017 1.2296-8.2357 2.6391-1.4096 1.2155-1.4178 1.255-1.3196 7.3142 0.0545 3.35 0.24714 7.3061 0.42556 8.793 0.18685 1.563 0.12024 2.7034-0.15613 2.7034-0.2639 0-0.6373-1.6792-0.82663-3.7322-0.50187-5.4394-2.318-12.732-5.9304-23.813-3.7908-11.629-4.1026-13.339-2.8596-15.743 1.2161-2.3491 3.4525-5.1098 4.1424-5.1098zm877.35 2.6697c0.687-0.3845 1.2753-0.24409 2.3635 0.56046 0.7973 0.5895 1.4481 1.2919 1.4481 1.5614 0 0.26957 0.4077 0.79644 0.9032 1.1726 0.5503 0.41769 0.65 0.68537 0.2571 0.70099-0.8878 0.0237-0.807 1.2981 0.1285 2.0759 0.4249 0.35253 0.7715 0.95997 0.7715 1.3501 0 0.38985-0.3465 0.7103-0.7715 0.7103-0.4248 0-0.7745 0.33712-0.7745 0.7532 0 0.48167-0.2986 0.6424-0.8236 0.44079-0.4532-0.17419-1.013 0-1.2461 0.37028-0.3377 0.54624-0.5801 0.5658-1.1909 0.0473-0.5191-0.42892-0.8733-0.48521-1.0992-0.0942-0.5646 0.91386-1.8186 0.59738-1.8186-0.45915 0-1.3841-0.7168-1.694-2.2778-0.98283-1.7548 0.79959-2.1268 0.31162-1.2952-1.6961 0.3757-0.90747 0.772-1.3796 0.8818-1.0501 0.3668 1.1012 3.4685 2.1939 5.5079 1.9411 2.5051-0.31104 2.9634-0.79614 2.7585-2.9362-0.1404-1.4685-0.5119-1.9087-2.4034-2.8473-1.936-0.96062-2.1121-1.1761-1.3196-1.6196zm-485.55 4.2189c0.21774 0.16117 0.23575 0.55692 0.23575 1.3227 0 3.0391 2.6957 3.1909 7.9235 0.44376 0.78973-0.41532 1.3184-0.16353 2.8228 1.3408 1.571 1.571 1.6963 1.8492 0.82663 1.8492-0.56336 0-1.7999-0.22157-2.7463-0.49291-1.2635-0.3626-2.0155-0.31046-2.8289 0.1961-0.60929 0.37917-1.8019 0.84958-2.6514 1.0469-2.0666 0.47989-4.7802 2.6054-6.0283 4.7212-0.8399 1.4233-1.1815 1.635-1.9656 1.2153-1.3923-0.74507-1.5119-0.67735-2.336 1.2951-0.47621 1.1396-1.1055 1.8003-1.7084 1.8003-0.52444 0-1.5894 0.50359-2.3697 1.1173l-1.4206 1.1145 0.38575-1.243c1.0168-3.2834 4.1456-10.229 5.4864-12.179 1.6364-2.3794 2.4059-2.9197 4.9353-3.4628 0.80274-0.17242 1.2213-0.23224 1.439-0.0859zm518.98 3.0034c0.1747-0.60586 0.2903-0.0942 0.4805 1.0686 0.756 4.6103-0.7097 12.528-2.8289 15.287-0.8218 1.0699-0.9887 1.1291-0.9982 0.35844 0-0.50952 0.3508-1.6245 0.793-2.4799 0.4426-0.85544 1.2129-4.7263 1.7145-8.6001 0.4284-3.3056 0.664-5.0276 0.839-5.6334zm-325.69 2.829-0.31227 2.6452c-0.27207 2.2963-0.13528 2.9146 1.044 4.6966 1.6801 2.5385 1.6799 2.7763 0.0214 3.8638-0.99207 0.65069-2.1781 0.83097-4.5985 0.70709-2.8034-0.14391-3.4332 0-4.4883 0.98586-0.67472 0.63421-1.6886 1.1512-2.2534 1.1512-0.5642 0-1.477 0.34065-2.0268 0.75621-1.463 1.1065-2.7499 0.95492-3.3678-0.4011-0.64645-1.4192 0.55585-3.6605 4.0536-7.5592 1.7199-1.9168 2.6566-2.5231 4.3016-2.786 2.4185-0.38689 4.8395-1.5121 6.4845-3.0158zm784.36 3.579-1.3379 1.7574c-0.7355 0.9676-2.3979 3.788-3.6924 6.2672l-2.3513 4.5066 1.2307 3.2146c1.921 5.0107 2.8725 6.7103 4.611 8.2235 2.0211 1.7632 2.4038 1.7528 3.9983 0.0177 2.0123-2.2046 5.5937-8.5494 5.5937-9.9105 0-1.3942-4.5634-9.8916-6.6621-12.406zm-0.2512 9.4451c0.3727 0 2.639 3.8528 2.639 4.473 0 0.22692-0.5586 1.3318-1.2367 2.4524l-1.234 2.0359-0.8571-2.0359c-0.4722-1.1205-0.8901-2.4017-0.9277-2.8443-0.08-0.96344 1.157-4.0812 1.6165-4.0812zm-1063.4 14.766c0.10162 0.0533-3e-3 0.28498-0.24185 0.73176-0.50247 0.93892-2.0346 1.3828-2.0268 0.58771 0-0.2127 0.5767-0.64898 1.2767-0.97358 0.58279-0.27077 0.8904-0.39755 0.99198-0.34601zm1056.3 6.3376c-0.3057 0-0.554 0.47634-0.554 1.0562 0 1.1993 3.3619 7.5294 5.7496 10.826l1.5983 2.2043 2.2686-2.4034c1.8609-1.9694 2.1771-2.5749 1.7543-3.3647-0.5893-1.1014-9.9742-8.3184-10.817-8.3184zm-797.13 1.0318c0.85468-0.41354 0.86673 0.11145-0.62457 1.8952-1.6118 1.9278-3.4168 5.5324-3.4168 6.8243 0 0.56937 0.70923 1.5598 1.5767 2.2013 2.0425 1.51 3.5729 4.0124 3.5729 5.8446v1.4512l-1.4451-1.3838c-0.79435-0.76089-1.6179-1.3838-1.8308-1.3838-0.21347 0-1.2642-0.70273-2.333-1.5614-1.0896-0.87566-2.2802-1.4323-2.7095-1.2675-1.2382 0.47515-4.2311 4.4017-5.7467 7.5377-0.77275 1.5991-1.7357 3.1824-2.1401 3.5178-0.62214 0.51663-0.68828 0.3075-0.42557-1.3624 0.17128-1.0851 0.85381-2.6285 1.5186-3.429 0.66474-0.80053 1.2094-2.0088 1.2094-2.685 0-0.67641 0.71016-2.0378 1.5767-3.0249 1.3236-1.5073 1.5485-2.148 1.4145-4.0076-0.14406-1.9858-0.30423-2.2301-1.5737-2.3759-1.2624-0.14578-1.4163-0.36968-1.4022-2.0604 0.0196-1.5937 0.10487-1.7458 0.5664-0.95214 0.38101 0.64897 0.90925 0.85414 1.7268 0.64897 0.72469-0.18188 1.424-3.5e-4 1.8156 0.4716 1.0283 1.239 2.2778 0.89622 4.2404-1.1634 1.8782-1.9709 3.5755-3.3215 4.4301-3.7352zm-306.65 2.7095 1.9931 1.9932c1.0962 1.0964 2.3481 1.9932 2.78 1.9932 1.1565 0 1.6186 1.711 2.0329 7.5223l0.37046 5.2079-1.289 0.24766c-0.97279 0.18602-1.4217-0.0356-1.8125-0.891-0.28527-0.62605-1.0307-3.313-1.6563-5.9702-0.62562-2.657-1.4264-6.0168-1.7788-7.4672zm49.418 5.8263c0.1654 0.26778-0.0267 0.93519-0.42558 1.4818-0.39972 0.54564-0.70892 0.77481-0.68886 0.50832 0.0817-1.0962 0.83552-2.4423 1.1144-1.99zm371.38 0.83281c0.38514 0.38511-0.75422 10.214-1.54 13.284-1.947 7.6075-2.8534 8.6177-2.8534 3.181 0-1.9309 0.35962-4.7225 0.79908-6.203 0.43957-1.4804 0.66968-3.0983 0.51129-3.5974-0.25473-0.80148 2.6555-7.0925 3.083-6.665zm-235.1 3.5392c0.16737 0.0177 0.85803 0.72808 1.5339 1.5828 0.86774 1.0972 1.3278 2.5175 1.5676 4.8343 0.22164 2.1424 0.68516 3.6606 1.3318 4.375 1.3359 1.4762 1.9197 5.8377 2.036 15.179 0.0563 4.4984 0.34735 8.3283 0.69804 9.1727 0.33141 0.79709 0.60314 2.4259 0.60314 3.6188 0 2.3092 1.1256 4.4577 2.336 4.4577 0.40322 0 0.84342 0.52018 0.97666 1.1573 0.13434 0.63724 0.70409 3.2439 1.2706 5.7926 1.1551 5.1962 1.3295 8.3077 0.72254 12.957l-0.41337 3.1749-3.6862-3.726c-3.5217-3.563-3.7005-3.8631-4.0566-6.7784-0.20512-1.6777-0.90247-4.5634-1.5522-6.3987-2.8135-7.9713-4.3935-13.999-4.7914-18.299-0.23449-2.536-0.80101-5.3352-1.2583-6.2182l-0.82972-1.6042 2.036-1.6379c1.1205-0.90054 2.039-2.0131 2.039-2.4739 0-0.46093-0.60647-2.5943-1.3471-4.7393-1.0692-3.0968-1.2965-4.5368-1.096-6.9897 0.26115-3.197 1.346-7.4868 1.8798-7.4366zm-144.76 1.8461 0.57866 2.6882c0.65383 3.0486 0.71185 4.2592 0.26328 5.4281-0.47467 1.2384-1.1442 0.98693-2.2686-0.85717-1.3079-2.1453-1.2818-2.7816 0.20511-5.2384zm-242.38 3.5545c-0.0194-0.52433 2.5206 2.2319 9.1634 9.9931 3.7682 4.4026 4.1942 5.1234 4.4363 7.4674 0.2989 2.8924 0.84093 60.001 0.56945 60.001-0.0953 0-0.45108-1.2166-0.7899-2.7034-0.33826-1.4867-1.1513-5.0212-1.8064-7.8531-0.65501-2.8318-1.7123-7.5799-2.3513-10.553-0.63886-2.9734-1.5073-5.8112-1.9288-6.3068-0.52443-0.61651-1.5135-0.90054-3.132-0.90006-3.857 0-13.476-1.1743-13.321-1.6196 0.0798-0.22927 2.8965-3.5735 6.2641-7.4307l6.1232-7.011-0.3184-4.4578c-0.2884-4.0208-0.87332-9.7622-2.3881-23.504-0.28099-2.5487-0.51576-4.8531-0.52047-5.1222zm229.77 1.3042c0.13669 0 0.40318 0.26898 0.93073 0.79912 0.6484 0.64831 1.0079 1.5614 0.90318 2.3023l-0.17455 1.2277-0.9001-1.2705c-0.49547-0.70022-0.90319-1.739-0.90319-2.3054 0-0.50775 8e-3 -0.75321 0.1439-0.75321zm-494.63 5.857c0.09471 0.15222 0.04089 0.53676-0.03082 1.0501-0.15759 1.1329-0.64512 6.8084-1.0869 12.614-0.44156 5.8055-0.98992 12.293-1.2155 14.417-0.4995 4.7033-1.0574 3.9664 9.2277 12.152 4.2141 3.3535 7.6154 6.1463 7.5561 6.2059-0.0586 0.0593-3.1168 0.5818-6.7937 1.1633-3.6769 0.58179-8.3884 1.3305-10.468 1.6625-3.0302 0.48344-3.8665 0.81735-4.2189 1.6809-0.24167 0.58713-1.5009 5.8258-2.7983 11.631-2.7705 12.397-3.3936 14.953-3.8638 15.868-0.1907 0.37325-0.62523-6.3462-0.9644-14.931-0.33918-8.5853-0.84364-21.75-1.1206-29.254-0.27691-7.5043-0.61578-14.641-0.75316-15.859l-0.24799-2.2165 8.5174-8.597c6.3707-6.4301 7.976-8.0461 8.2602-7.5866zm502.22 1.1144c0.35152 0.35132 0.36247 0.95089 0.0337 1.7757-0.46773 1.1705-0.49909 1.1395-0.52965-0.52966-0.0214-1.2194 0.13245-1.6102 0.49594-1.2461zm3.5025 0.0705c0.41199-0.41175 0.66001-0.32169 0.9093 0.32764 0.18875 0.49115 0.0878 1.1459-0.22349 1.4574-0.41177 0.41177-0.66002 0.32468-0.9093-0.32466-0.18875-0.48582-0.0876-1.1488 0.22349-1.4603zm2.2074 2.9147c0.50946-0.31458 1.6068 2.1919 1.3747 3.1412-0.0817 0.33649-0.52765-0.16827-0.98888-1.1236-0.46194-0.95547-0.63565-1.8624-0.38576-2.0176zm-201.86 25.522h1.5798l-0.98584 1.4175c-0.54257 0.77872-1.2467 1.8798-1.5645 2.4463-0.49133 0.87595-0.57676 0.66307-0.59086-1.4175-0.0196-2.3899 0.019-2.4463 1.5614-2.4463zm441.45 1.5462h1.7543l-0.19902 3.9922c-0.11097 2.1948-0.46348 4.9171-0.78377 6.0498-0.32032 1.1327-0.74501 3.109-0.94603 4.3933-0.20102 1.2844-0.76289 2.9014-1.2461 3.5914-0.48339 0.69004-0.88008 1.7219-0.8848 2.2961-0.0196 1.7053-0.63509 2.3452-1.5982 1.6411-0.58191-0.42538-0.75097-1.1194-0.57249-2.3361 0.14014-0.95148-0.045-2.9748-0.41029-4.4974-0.59879-2.4966-0.55027-3.2339 0.50212-7.5316 1.6134-6.588 2.196-7.5989 4.3842-7.5989zm-436.46 2.5871 0.51128 2.0206c0.41507 1.6359 0.37236 2.0782-0.23574 2.3115-1.1536 0.44139-3.2423 0.36141-3.2423-0.157 0-0.24408 0.66642-1.2818 1.4818-2.3083zm-7.0876 1.9074 0.9491 1.2277c0.52078 0.67529 1.2108 2.2979 1.5339 3.6064 0.323 1.3087 0.72212 2.7264 0.88479 3.1505 0.18681 0.48759-0.0768 0.86812-0.71334 1.0349-0.85372 0.22277-1.1342-0.18367-1.8308-2.6667-0.45264-1.6131-0.82357-3.7046-0.82357-4.6444zm-0.0704 12.24 1.0777 2.2749c1.1409 2.4035 1.1988 3.779 0.10722 2.4615-0.35726-0.43011-0.77081-1.6743-0.91849-2.7615zm8.4899 7.6266c0.13811-0.1381 0.519 0.25179 0.84808 0.8664 0.77801 1.4539 0.41709 1.8178-0.44091 0.44376-0.363-0.5812-0.54529-1.1724-0.4072-1.3104zm860.23 0.39813c-1.0067 0.0687-1.999 0.73643-3.2177 2.0176-1.0816 1.137-2.5653 2.2946-3.2943 2.5717-1.866 0.70948-3.0027 3.6521-2.5688 6.6498 0.1867 1.2953 1.7101 5.8312 3.3831 10.079 2.9352 7.4496 4.5053 12.885 3.8974 13.492-0.5948 0.5949-2.8189-1.4119-4.0933-3.6924-0.723-1.2945-2.1796-4.8418-3.2331-7.8805-2.8102-8.1072-5.2786-10.173-8.1194-6.7967-1.8608 2.2112-2.138 4.481-1.0807 8.8634 2.5865 10.722 7.5202 19.686 12.124 22.034 2.4217 1.2354 7.4098 1.3541 10.079 0.23876 1.0166-0.42481 3.2983-0.77452 5.0669-0.77452h3.2149l-2.2504 2.2503c-3.5267 3.5267-2.9513 6.1544 1.7083 7.8163 1.0807 0.38569 3.0666 0.70994 4.4119 0.72558 2.0166 0.0177 2.4431 0.18602 2.4431 0.96138 0 0.51722 0.2198 3.3552 0.487 6.3069 0.2666 2.9517 0.5976 7.4796 0.7348 10.06l0.2482 4.6903-1.9747 0.59412c-1.1085 0.33177-2.6827 1.3992-3.5913 2.4339-1.4341 1.6333-1.6 2.1423-1.4634 4.4974l0.1564 2.6575 7.8531-0.11914 0.2967 2.5043c0.5605 4.7321 2.8459 7.6662 4.7456 6.0896 0.5604-0.46566 0.747-1.8848 0.747-5.6762v-5.0578l2.9606-2.2839c1.6283-1.2566 3.4007-2.776 3.9402-3.377 0.5392-0.60099 1.1532-1.09 1.3625-1.09 0.6058 0-0.4047 3.7759-2.4187 9.0378l-1.8614 4.862 1.3287 2.0115c1.5583 2.3551 4.3985 9.4954 4.8282 12.142 0.1789 1.0984 0.8165 2.2536 1.5829 2.8564l1.2858 1.0104-1.3655 1.9318c-0.7519 1.0622-2.0864 2.8934-2.9636 4.0689s-1.4386 2.3922-1.2461 2.7034c0.2245 0.3638 2.7284 0.5634 7.0142 0.5634 6.0067 0 6.6608-0.088 6.6498-0.9001 0-0.4959-0.4716-1.9129-1.0318-3.1473-1.3918-3.0674-1.3206-4.9024 0.2299-5.9181 0.6863-0.4497 1.3976-1.2876 1.5798-1.8615 0.2447-0.7711 0.7774-1.0441 2.0359-1.0441 1.4549 0 1.7429 0.2121 1.99 1.4482 0.1773 0.8828 0.8054 1.6815 1.6105 2.0481 1.7053 0.7771 1.6617 1.7338-0.2263 5.0794-2.4546 4.3435-2.5132 4.2954 4.8924 4.2954 6.3697 0 6.4356-0.018 6.4356-1.1817 0-0.6504-0.8044-2.4449-1.788-3.9893-1.8945-2.9733-2.2222-4.5135-1.1787-5.557 0.3507-0.3507 1.1359-2.5427 1.742-4.8679 1.9555-7.5 2.6874-9.7192 3.5086-10.627 1.0787-1.192 1.0211-2.0146-0.41-5.8172-0.6688-1.7768-1.3179-4.6362-1.442-6.3528l-0.2263-3.1198 1.8186 0.62451c1.7656 0.60697 1.8384 0.73505 2.4462 4.4087 0.3442 2.0811 0.7699 4.8977 0.946 6.258 0.359 2.7736 1.6987 3.841 4.072 3.2453 1.2988-0.32585 1.3257-0.42183 1.3257-4.8925v-4.5617l2.3053 0.26008c4.0771 0.45975 5.9028-1.8696 4.9109-6.2672-0.5173-2.2948-2.6696-4.7643-5.0302-5.7742-1.5614-0.66795-1.6699-0.87814-1.6349-3.1535 0.023-1.3413 0.2441-3.7147 0.4959-5.2721 0.2523-1.5575 0.6173-3.93 0.8083-5.2751 0.3152-2.2228 0.4733-2.4463 1.7266-2.4463 4.1143 0 9.289-2.9459 9.289-5.2873 0-0.56522-1.0304-2.0592-2.29-3.3188l-2.2901-2.29 3.4473 0.23876c1.8968 0.13153 4.6683 0.53085 6.157 0.8849 2.6099 0.62006 2.8223 0.58357 5.9731-0.96755 4.0783-2.0078 9.1968-6.9581 11.8-11.417 2.5458-4.3611 5.0698-12.198 5.3854-16.716 0.2233-3.2019 0.1309-3.7157-0.842-4.5925-0.6016-0.54268-1.7932-0.98584-2.6451-0.98584-2.6129 0-4.2375 2.1472-6.6897 8.8297-3.8126 10.389-6.571 15.057-8.4623 14.331-1.7678-0.67848-0.2364-5.9747 3.9556-13.688 4.6753-8.6029 5.5291-10.533 5.5415-12.544 0.017-1.9364-1.1884-4.9966-1.9594-4.9966-0.2199 0-1.4718-1.0433-2.783-2.3176-2.5682-2.4962-3.295-2.7064-5.4406-1.592-1.8434 0.95741-3.2359 2.9206-6.3221 8.9276-3.9412 7.6711-5.147 12.043-5.4804 19.852-0.2434 5.6978-0.3951 6.5672-1.1143 6.4293-0.6434-0.12212-0.9026-1.0421-1.1482-4.0567-0.6357-7.8037-3.863-14.339-10.367-20.993-7.7867-7.9674-17.219-11.477-27.87-10.373-9.3576 0.97026-15.477 3.8923-22.175 10.59-6.4551 6.4553-9.7066 12.783-10.728 20.874-0.3182 2.5218-0.705 4.5843-0.8603 4.5833-0.1559 0-0.2862-3.4197-0.2939-7.5959-0.017-8.0658-0.3863-10.201-3.2637-18.713-1.9319-5.7153-2.7317-7.1915-4.9537-9.1421-1.2653-1.1109-2.2845-1.6395-3.2912-1.5705zm-863.83 2.8688c0.67634 0.51365 2.0442 1.8582 4.2801 4.1669 6.399 6.6075 6.4708 6.7204 2.7095 4.3352-2.2443-1.4235-5.9063-5.3764-7.1183-7.6847-0.53369-1.0161-0.54571-1.331 0.12854-0.81735zm905.51 11.876c0.6471-0.14579 1.4072 0.33829 2.6146 1.3716 2.6347 2.2552 3.5811 2.3034 6.0989 0.30927 1.0725-0.8496 2.1824-1.546 2.4676-1.546 0.4994 0 2.6884 3.2888 2.6758 4.0198 0 0.1961-0.8157 0.88193-1.8033 1.5216-0.9876 0.63973-1.7897 1.4489-1.7819 1.8004 0 0.35133 0.7043 1.5512 1.5462 2.6636 0.8416 1.1124 1.5308 2.2866 1.5308 2.6115 0 0.56223-2.1097 2.8319-2.633 2.8319-0.1362 0-1.1534-0.92767-2.2594-2.0604-1.1062-1.1327-2.3125-2.0605-2.6789-2.0605-0.3668 0-1.5635 0.81215-2.6606 1.8033-2.2557 2.0378-3.1394 2.2123-4.3629 0.86043-1.2222-1.351-1.0619-2.2693 0.692-3.9496 0.8496-0.81385 1.5431-1.8193 1.5431-2.2318 0-0.41294-0.8411-1.4765-1.8707-2.3667-1.8518-1.6006-1.8619-1.6348-1.0624-3.181 0.7636-1.4768 1.2971-2.2515 1.9441-2.3973zm25.457 51.622c2.3202 0 3.6313 2.7162 3.2484 6.7264-0.2121 2.2207-1.1049 2.3748-3.775 0.6552-2.2372-1.441-4.8894-3.7719-4.8894-4.2955 0-0.66343 4.2511-3.0861 5.416-3.0861zm-37.621 1.742c0.3821-0.14751 1.6371 0.21329 2.786 0.79917 1.1489 0.58593 2.4449 1.0654 2.881 1.0654s0.793 0.17655 0.793 0.39456c0 0.21863-2.1125 2.4783-4.6935 5.021l-4.6904 4.6232 0.2601-4.17c0.2612-4.1637 1.3126-7.2154 2.6636-7.7336zm613.56 8.4287c-0.5084-0.50478-0.5677-0.4408-0.288 0.28793 0.1924 0.50832 0.481 0.79223 0.6398 0.63376 0.1594-0.1582 0-0.57233-0.3518-0.92141zm-262.45 32.768c-0.1965 0.2815-0.2008 0.9562 0.1536 1.8552 0.5037 1.3343 0.4314 1.5917-0.6489 2.2993-0.6686 0.4378-1.6599 0.7961-2.2015 0.7961-0.5414 0-1.2627 0.333-1.6013 0.7409-0.3382 0.4076-0.958 0.6108-1.3777 0.4503-0.4193-0.1612-1.5016 0.059-2.4065 0.4899-0.9046 0.4313-2.2852 1.0823-3.0677 1.4451-1.4853 0.6888-3.5843 3.4811-3.1473 4.1884 0.138 0.2245 8.4651 0.407 18.501 0.407h18.247v-1.1112c0-0.6126-0.7157-2.2294-1.5797-3.5791-4.2066-6.5551-9.2553-8.5492-17.369-6.8642-1.3336 0.2772-1.8511 0.1457-2.4032-0.6092-0.4953-0.6773-0.9015-0.7899-1.0993-0.5084z" style="fill:#4d4d4d"/>
</svg>
